<svg width="621.237" height="644.64" viewBox="0 0 164.369 170.561" xmlns="http://www.w3.org/2000/svg"><path d="M115.703 87.907a113.785 122.626 0 0 0-109.738 90.76h219.571a113.785 122.626 0 0 0-109.833-90.76Z" style="opacity:1;fill:#8729a3;fill-opacity:1;stroke:#025;stroke-width:20;stroke-linecap:round;stroke-linejoin:miter;stroke-miterlimit:15;stroke-dasharray:none;stroke-dashoffset:0;stroke-opacity:1;paint-order:stroke fill markers" transform="matrix(.63349 0 0 .67413 9.482 -25.139)"/><path d="M118.773 103.45a101.046 86.959 0 0 0-99.29 71.16h198.6a101.046 86.959 0 0 0-99.31-71.16z" style="opacity:1;fill:#eb3297;fill-opacity:1;stroke:#025;stroke-width:6.43253;stroke-linecap:round;stroke-linejoin:miter;stroke-miterlimit:15;stroke-dasharray:none;stroke-dashoffset:0;stroke-opacity:1;paint-order:stroke fill markers" transform="matrix(.63349 0 0 .67413 9.482 -25.139)"/><path d="M121.396 115.576a93.836 88.96 0 0 0-92.175 72.602h184.353a93.836 88.96 0 0 0-92.178-72.602z" style="opacity:1;fill:#ff80b2;fill-opacity:1;stroke:#025;stroke-width:5.51818;stroke-linecap:round;stroke-linejoin:miter;stroke-miterlimit:15;stroke-dasharray:none;stroke-dashoffset:0;stroke-opacity:1;paint-order:stroke fill markers" transform="matrix(.63349 0 0 .67413 9.482 -25.139)"/><g style="stroke-width:1.3058"><path d="M68.01 120.054s50.735-33.353 57.596 8.27c18.867 2.576 11.474 21.7 6.031 36.82 0 0 47.625 17.06 47.625 30.28-17.88 30.97-42.695-9.027-57.13-14.833z" style="fill:#4d4d4d;stroke:gray;stroke-width:3.9174;stroke-linecap:butt;stroke-linejoin:miter;stroke-miterlimit:15;stroke-dasharray:none;stroke-opacity:1" transform="matrix(.46903 0 0 .4697 64.915 -49.526)"/><path d="M124.478 171.18c6.602 13.461 18.041 27.07 6.14 63.64-1.537-5.283-1.721-11.787-4.013-17.967 1.141 12.098-3.799 32.705-7.92 49.53-1.474-7.468 1.35-30.155-1.73-30.875.85 7.865-4.424 23.143-6.002 28.52l-5.788-16.193.687-71.32z" style="fill:#0193cf;fill-opacity:1;stroke:#0193cf;stroke-width:3.9174;stroke-linecap:butt;stroke-linejoin:miter;stroke-miterlimit:15;stroke-dasharray:none;stroke-opacity:1" transform="matrix(.46903 0 0 .4697 64.915 -49.526)"/><path d="M125.606 128.324c-9.338-28.03-56.485-7.153-49.822 2.366" style="fill:none;stroke:gray;stroke-width:1.9587;stroke-linecap:butt;stroke-linejoin:miter;stroke-miterlimit:15;stroke-dasharray:none;stroke-opacity:1" transform="matrix(.46903 0 0 .4697 64.915 -49.526)"/><path d="M87.907 286c-.276-.139 14.315-17.926 34.396-18.332 32.199-.652 36.43 25.546 36.191 25.891-2.915-3.894-8.912-10.979-15.024-13.04 8.203 7.455 11.488 17.136 10.016 26.08-2.796-6.382-6.482-10.44-12.038-14.025 5.167 7.417 8.387 16.897 7.009 23.97l-17.272-.495c0-3.303-6.1-15.39-16.914-16.253-7.517-.6-11.717 15.97-11.717 15.97l-7.087-.284z" style="fill:#0193cf;fill-opacity:1;stroke:#6aabd9;stroke-width:3.9174;stroke-linecap:butt;stroke-linejoin:miter;stroke-miterlimit:15;stroke-dasharray:none;stroke-opacity:1" transform="matrix(.46903 0 0 .4697 64.915 -49.526)"/><path d="M434.371 1112.106c-18.901.27-37.815 13.677-55.799 42.556l9.033 38.781s15.876-62.626 44.286-60.357c40.868 3.264 63.927 48.949 63.927 61.43l40.61.84c-16.22-35.842-60.473-83.843-102.057-83.25z" style="fill:#f37737;fill-opacity:1;stroke:none;stroke-width:1.3058px;stroke-linecap:butt;stroke-linejoin:miter;stroke-opacity:1" transform="matrix(.1241 0 0 .12428 64.915 -49.526)"/><path d="M148.457 316.544c-13.97-32.772-44.523-33.668-49.476-17.38l1.183 6.34c3.428-5.489 17.06-26.006 41.766 10.767z" style="fill:#fff697;fill-opacity:1;stroke:none;stroke-width:.345493px;stroke-linecap:butt;stroke-linejoin:miter;stroke-opacity:1" transform="matrix(.46903 0 0 .4697 64.915 -49.526)"/><path transform="matrix(.1241 0 0 .12428 64.915 -49.526)" d="M467.875 1011.615c-1.85-.01-3.725 0-5.627.043-44.752.905-82.278 24.647-105.336 44.09l5.733 26.365c53.213-57.494 127.509-48.823 179.634-21.855l-.03-.03c10.54 3.555 20.975 11.072 30.269 19.583 11.94 9.618 21.156 19.927 26.515 29.705.892-1.285-14.593-97.25-131.158-97.9z" style="fill:#69207f;fill-opacity:1;stroke:none;stroke-width:1.3058px;stroke-linecap:butt;stroke-linejoin:miter;stroke-opacity:1"/><path d="M125.606 128.324c-4.818-8.676-23.169 18.833-23.741 20.131" style="fill:none;stroke:gray;stroke-width:1.9587;stroke-linecap:butt;stroke-linejoin:miter;stroke-miterlimit:15;stroke-dasharray:none;stroke-opacity:1" transform="matrix(.46903 0 0 .4697 64.915 -49.526)"/><path transform="matrix(.1241 0 0 .12428 64.915 -49.526)" d="m443.572 682.877-45.24 164.62-.86 89.202 21.88 61.203c37.9-108.118 39.381-248.278 24.22-315.025ZM438.209 1067.135c-25.926-.275-49.172 9.344-70.008 24.07 4.658.443 1.996 41.667 5.901 39.493 27.256-51.431 116.113-59.905 186.996 65.689 5.028-25.812-3.013-52.954-22.474-82.918-28.184-43.396-70.092-46.013-100.415-46.334z" style="fill:#7cc041;fill-opacity:1;stroke:none;stroke-width:1.3058px;stroke-linecap:butt;stroke-linejoin:miter;stroke-opacity:1"/><path d="M68.536 162.685s-5.816 22.904-28.915 18.71c-3.533-.642-3.555 10.577-2.389 14.72 5.383 15.7 31.187 22.147 42.454 18.92 0 0 1.29 4.687-.189 10.205-1.478 5.518-22.3 44.034-35.152 68.225-12.85 24.19-13.796 22.49-13.796 22.49l72.005-.19s-7.182-22.49-.945-51.216c6.236-28.726 17.576-75.784 17.576-75.784 7.668-12.702 20.993-43.368 12.85-61.232-3.383 7.5-14.93 9.246-19.276 20.6l-11.906-8.127H77.607l-10.205 8.316z" style="fill:#9dd8f6;fill-opacity:1;stroke:#6aabd9;stroke-width:3.9174;stroke-linecap:butt;stroke-linejoin:miter;stroke-miterlimit:15;stroke-dasharray:none;stroke-opacity:1" transform="matrix(.46903 0 0 .4697 64.915 -49.526)"/><path d="m60.67 258.647 15.1 21.515s4.544 7.75 13.899 6.815c9.354-.935 14.299-3.207 13.23-8.82-1.07-5.612-9.622-19.243-12.696-22.05-3.073-2.806-28.865-21.38-37.417-20.044-8.553 1.336-9.915 8.85-8.712 12.457 1.203 3.609 16.596 10.127 16.596 10.127z" style="fill:#9dd8f6;fill-opacity:1;stroke:#6aabd9;stroke-width:3.9174;stroke-linecap:butt;stroke-linejoin:miter;stroke-miterlimit:15;stroke-dasharray:none;stroke-opacity:1" transform="matrix(.46903 0 0 .4697 64.915 -49.526)"/><path d="M105.165 247.835c-3.591-4.242-25.118-17.92-31.399-17.92-15.538 0-33.715 20.104-40.49 37.953-2.23 5.873-6.816 19.243 2.27 18.708 9.088-.534 20.982-6.681 23.12-11.492 2.138-4.811 6.147-27.262 13.096-28.865 6.949-1.604 24.543 19.624 29.827 17.901 8.888-2.899 11.583-6.826 3.576-16.285z" style="fill:#9dd8f6;fill-opacity:1;stroke:#6aabd9;stroke-width:3.9174;stroke-linecap:butt;stroke-linejoin:miter;stroke-miterlimit:15;stroke-dasharray:none;stroke-opacity:1" transform="matrix(.46903 0 0 .4697 64.915 -49.526)"/><path transform="matrix(.1241 0 0 .12428 64.915 -49.526)" d="M470.469 646.979c-1.49 15.115-3.533 20.186-8.865 35.568 53.318 21.45 144.112 166.33 211.289 63.605-41.578 50.391-202.424-99.173-202.424-99.173z" style="fill:#000;stroke:gray;stroke-width:14.8059;stroke-linecap:butt;stroke-linejoin:miter;stroke-miterlimit:15;stroke-dasharray:none;stroke-opacity:1"/><path transform="matrix(.1241 0 0 .12428 64.915 -49.526)" d="m470.469 646.979-8.865 35.568c-11.142 30.896 3.368 56.653 12.783 119.244 0 0 1.757 8.485 4.361 20.924-.073-1.047-.144-2.096-.24-3.111 8.661 23.354 9.356 47.936 15.164 67.902 44.984-138.216 1.75-189.649-23.203-240.527z" style="fill:#69207f;fill-opacity:1;stroke:none;stroke-width:1.3058px;stroke-linecap:butt;stroke-linejoin:miter;stroke-opacity:1"/><path d="M126.151 197.308c1.103-6.463 4.395-14.533.267-22.45-4.798-9.203-14.772-21.428-14.772-21.428l-73.16-3.963s-11.756 44.7 20.313 28.064c4.846 20.634 19.49 24.577 29.987 22.88 13.245-2.141 17.066-23.896 17.066-23.896s8.98 2.459 11.947 5.425c2.564 2.564 1.002 15.569 1.002 15.569 1.276 6.598 6.9 2.439 7.35-.2z" style="fill:#000;stroke:#000;stroke-width:1.9587;stroke-linecap:butt;stroke-linejoin:miter;stroke-miterlimit:15;stroke-dasharray:none;stroke-opacity:1" transform="matrix(.46903 0 0 .4697 64.915 -49.526)"/><path d="m102.613 155.878-16.472-.898-13.725 39.992c1.098.879 2.113 1.828 4.062 1.976 3.678-5.964 8.248-18.617 12.75-27.208 4.1-7.827 6.095-2.665 7.686-3.11 6.466-1.806 5.699-10.752 5.699-10.752z" style="fill:gray;stroke:none;stroke-width:1.9587;stroke-linecap:butt;stroke-linejoin:miter;stroke-miterlimit:15;stroke-dasharray:none;stroke-opacity:1" transform="matrix(.46903 0 0 .4697 64.915 -49.526)"/><path transform="matrix(.1241 0 0 .12428 64.915 -49.526)" d="m187.408 567.188-23.711 112.68c1.705 1.153 3.48 2.184 6.303 2.103 7.597-13.13 16.224-23.617 25.816-31.846 17.62-15.116 18.525-29.094 22.487-41.049 7.839-23.656 30.439-38.017 31.242-38.521z" style="fill:gray;stroke:none;stroke-width:7.40296;stroke-linecap:butt;stroke-linejoin:miter;stroke-miterlimit:15;stroke-dasharray:none;stroke-opacity:1"/><g style="stroke-width:6.05162;stroke-miterlimit:4;stroke-dasharray:none"><g style="stroke:gray;stroke-width:6.05162;stroke-miterlimit:4;stroke-dasharray:none" transform="matrix(.0828 .06034 -.08516 .06182 139.062 14.937)"><circle style="opacity:1;fill:#000;fill-opacity:1;stroke:gray;stroke-width:6.05162;stroke-linecap:round;stroke-linejoin:miter;stroke-miterlimit:4;stroke-dasharray:none;stroke-dashoffset:0;stroke-opacity:1;paint-order:stroke fill markers" cx="-204.797" cy="70.009" r="10.131"/><circle r="10.131" cy="90.789" cx="-177.538" style="opacity:1;fill:#000;fill-opacity:1;stroke:gray;stroke-width:6.05162;stroke-linecap:round;stroke-linejoin:miter;stroke-miterlimit:4;stroke-dasharray:none;stroke-dashoffset:0;stroke-opacity:1;paint-order:stroke fill markers"/><circle style="opacity:1;fill:#000;fill-opacity:1;stroke:gray;stroke-width:6.05162;stroke-linecap:round;stroke-linejoin:miter;stroke-miterlimit:4;stroke-dasharray:none;stroke-dashoffset:0;stroke-opacity:1;paint-order:stroke fill markers" cx="-177.159" cy="120.143" r="10.131"/><circle r="10.131" cy="119.541" cx="-205.231" style="opacity:1;fill:#000;fill-opacity:1;stroke:gray;stroke-width:6.05162;stroke-linecap:round;stroke-linejoin:miter;stroke-miterlimit:4;stroke-dasharray:none;stroke-dashoffset:0;stroke-opacity:1;paint-order:stroke fill markers"/><circle style="opacity:1;fill:#000;fill-opacity:1;stroke:gray;stroke-width:6.05162;stroke-linecap:round;stroke-linejoin:miter;stroke-miterlimit:4;stroke-dasharray:none;stroke-dashoffset:0;stroke-opacity:1;paint-order:stroke fill markers" cx="-234.059" cy="123.231" r="10.131"/></g></g><path d="M17.42 135.85c9.142-3.66 15.307-2.74 15.307-2.74-11.692 5.042-10.22 12.436-12.694 19.125 4.8-5.103 9.798-8.722 15.308-8.504-12.018 5.532-10.542 22.352-13.702 40.254 23.465-45.916 44.786-23.396 91.187-35.719-20.162-47.501-83.276-45.37-95.407-12.416Z" style="fill:#f37737;fill-opacity:1;stroke:#0193cf;stroke-width:3.9174;stroke-linecap:butt;stroke-linejoin:miter;stroke-miterlimit:20.8;stroke-dasharray:none;stroke-opacity:1" transform="matrix(.46903 0 0 .4697 64.915 -49.526)"/><path transform="matrix(.1241 0 0 .12428 64.915 -49.526)" d="M220.764 422.412c-69.604-.134-133.436 32.652-154.928 91.035 28.714-11.493 61.603-12.173 67.863-11.69 95.97-43.836 214.959-37.397 292.729 58.62-40.483-95.378-126.78-137.813-205.664-137.965Z" style="fill:#ee4035;fill-opacity:1;stroke:none;stroke-width:1.3058px;stroke-linecap:butt;stroke-linejoin:miter;stroke-opacity:1"/><path d="M44.716 188.052a2.198 2.46 88.311 0 0-.41 1.275 2.198 2.46 88.311 0 0 2.522 2.124 2.198 2.46 88.311 0 0 2.394-2.269 2.198 2.46 88.311 0 0-.008-.106 2.198 2.46 88.311 0 1-1.982.994 2.198 2.46 88.311 0 1-2.516-2.018z" style="opacity:1;fill:#6aabd9;fill-opacity:1;stroke:none;stroke-width:3.19998;stroke-linecap:round;stroke-linejoin:miter;stroke-miterlimit:4;stroke-dasharray:none;stroke-dashoffset:0;stroke-opacity:1;paint-order:stroke fill markers" transform="matrix(.46903 0 0 .4697 64.915 -49.526)"/><path transform="matrix(.1241 0 0 .12428 64.915 -49.526)" d="M81.785 695.377c88.686-173.54 169.271-88.427 344.643-135-161.348-70.798-300.605 6.573-344.643 135z" style="fill:#fff697;fill-opacity:1;stroke:none;stroke-width:1.3058px;stroke-linecap:butt;stroke-linejoin:miter;stroke-opacity:1"/><path d="M129.76 139.311c-.203 8.838-4.281 14.124-8.687 19.11 3.833-5.7 7.318-11.65 8.686-19.11z" style="fill:#6aabd9;fill-opacity:1;stroke:none;stroke-width:.345493px;stroke-linecap:butt;stroke-linejoin:miter;stroke-opacity:1" transform="matrix(.46903 0 0 .4697 64.915 -49.526)"/></g><g><path style="fill:#025;fill-opacity:1;stroke:none;stroke-width:.398445px;stroke-linecap:butt;stroke-linejoin:miter;stroke-opacity:1" d="m286.922 322.555-.045 5.076c-6.102-1.801-12.215-2.501-17.283-2.545a90.193 90.193 0 0 0-8.748.367c-7.006.626-15.4 2.361-22.35 5.127-2.75-1.63-5.681-3.024-8.896-3.95l-.008-.001-.006-.002c-4.4-1.261-8.865-2.011-13.36-2.156a49.437 49.437 0 0 0-2.21-.022H214c-.74.01-1.495.035-2.27.082-12.986.787-23.035 6.222-30.566 14.389-9.99-8.622-23.887-11.077-33.785-11.162a89.974 89.974 0 0 0-8.748.361c-10.322.922-23.91 4.054-30.955 9.729-16.881 13.595-14.165 35.837.12 47.085-3.353 3.62-6.002 7.89-6.862 13.18-.295 1.809-8.082 31.432 15.326 37.305-4.231 4.11-8.32 8.656-12.174 13.92-12.104 16.53 5.75 119.569 27.947 143.492 1.72 1.853 3.606 3.102 5.461 4.076 3.613 3.108 7.736 4.636 11.276 5.25 8.632 3.724 20.087 2.484 29.478.885a73.724 73.724 0 0 0-1.434 7.422c-6.026 43.593 9.912 78.237 36.475 95.808l-.299-.2.627.444c-.036-.028-.069-.058-.105-.085 7.238 5.428 15.284 9.443 23.816 11.785 9.567 3.64 19.78 5.194 30.121 4.215 20.846-1.974 46.228-4.298 60.215-15.573 1.32 1.01 2.633 2.03 4.016 2.944-.111-.08-.225-.155-.338-.23l.61.43c-.036-.026-.07-.054-.106-.081 7.01 5.278 14.89 9.224 23.388 11.478l-1.834-.615a66.142 66.142 0 0 0 16.86 4.406h.008l.006.002c26.714 3.287 48.74-1.745 65.674-13.511 1.316 1.502 2.781 2.892 4.61 3.984.31.184.591.276.897.443.88.785 1.765 1.577 2.89 2.248 3.161 1.888 6.409 2.914 9.56 3.604 14.523 6.35 32.847.84 43.37-1.441 9.936-2.155 13.84-12.422 15.26-24.438a105.443 105.443 0 0 0 10.973 9.775c1.965 2.18 4.178 3.74 6.37 5.05 4.47 3.691 10.31 6.094 15.07 7.21 17.541 6.815 50.984 4.457 57.416-15.771 7.55-23.748 3.037-70.323-.133-104.407 24.746 5.52 55.27 10.194 71.308 12.809l3.452.563 3.347-1.01c19.243-5.804 22.905-43.936 9.594-59.74 9.511-10.773 12.314-32.054 6.478-44.805 20.786-5.845 29.083-47.49 10.583-59.277l-1.16-.74-1.278-.518c-1.547-.628-3.68-1.297-5.72-1.957-.627-.521-1.13-1.1-1.86-1.565l-1.16-.74-1.278-.518c-14.153-5.744-75.378-20.198-101.975-16.439a41.94 41.94 0 0 0-8.773 2.246 31.848 31.848 0 0 0-9.039-4.408c-.498-.152-.974-.263-1.465-.402-2.635-1.852-5.446-3.428-8.553-4.377-20.054-6.13-34.386-1.837-44.052 9.156-11.86-5.892-50.777-8.149-58.961 5.082-.058.093-.098.193-.155.287-4.698-5.614-10.185-10.074-16.828-11.865-.285-.077-.603-.172-.894-.252-2.655-1.875-5.585-3.573-9.125-4.528-9.663-2.605-31.868-10.94-42.922.274-.047-.013-.093-.023-.14-.035-.775-.615-1.487-1.26-2.415-1.791 2.52-10.68-1.123-21.208-1.967-24.703-1.29-5.344-3.883-8.934-7.002-11.516 2.378-9.482 1.801-20.223-4.28-31.57l-.305-.573-.348-.543.435.725c-9.082-16.113-28.522-20.011-41.26-20.121a89.953 89.953 0 0 0-8.75.365c-8.728.78-19.56 3.25-27.029 7.39-2.134-1.333-4.377-2.433-6.658-3.376zM212.695 705.86c.09.07.184.134.278.198zm118.37 3.514c.076.058.154.112.234.166z" transform="matrix(.26458 0 0 .26458 -25.407 -21.574)"/><g style="fill:#0193cf;fill-opacity:1"><path style="fill:#0193cf;fill-opacity:1;stroke:none;stroke-width:.290866px;stroke-linecap:butt;stroke-linejoin:miter;stroke-opacity:1" d="M-35.976 286.687c-15.603-.093-28.496 7.486-38.937 24.362-3.426 5.538 10.667 74.237 26.594 88.921 3.845 3.546 17.165-1.174 25.347-2.908 11.042-2.341-10.765-28.22-8.31-32.827 1.958-3.675 34.314-3.39 38.769-20.927 5.255-20.69-13.846-50.001-25.457-53.585-6.365-1.965-12.363-3.002-18.006-3.036zm6.955 32.554a8.917 8.917 0 0 1 8.404 5.801 8.912 8.912 0 0 1-1.482 8.776c3.024 3.565 13.454 9.062 9.073 10.695l-8.716 3.25-8.717 3.251c-4.407 1.643-.096-9.406-.144-14.109a8.912 8.912 0 0 1-6.715-5.636 8.912 8.912 0 0 1 5.236-11.464 8.896 8.896 0 0 1 3.06-.564z" transform="rotate(4.466 141.615 557.585) scale(.36244)"/><path d="M12.198 303.38c-3.794 15.118 15.246 53.85 19.02 75.69 1.02 5.902 28.28-.078 29.489-1.787 10.35-14.633 7.977-31.893 10.169-34.907 2.192-3.014 9.1 33.914 23.686 35.372 9.652.964 20.265 3.243 20.587-3.162 1.557-31.047 9.754-79.91.685-84.103-6.596-3.049-16.639.64-24.838 2.935-7.145 2 7.016 47.402-2.518 38.681-15.17-13.877-14.836-16.502-20.476-15.68-3.847.561-4.333 13.492-11.79 19.063-8.36 6.245-10.847-32.588-13.535-35.632-5.567-6.301-28.731-3.437-30.48 3.53z" style="fill:#0193cf;fill-opacity:1;stroke:none;stroke-width:.221799px;stroke-linecap:butt;stroke-linejoin:miter;stroke-opacity:1" transform="matrix(.39723 .03104 -.03104 .39723 41.26 -26.441)"/><g style="fill:#0193cf;fill-opacity:1;stroke:none"><path d="M239.19 366.82c-5.918 10.12 1.54 41.12.27 57.372-.344 4.392 22.26 4.926 23.543 3.918 7.1-33.785 2.128-46.717.85-58.442-.723-4.939-21.934-7.514-24.662-2.849z" style="fill:#0193cf;fill-opacity:1;stroke:none;stroke-width:.171183px;stroke-linecap:butt;stroke-linejoin:miter;stroke-opacity:1" transform="matrix(.39837 .00796 -.00732 .3664 23.499 -29.17)"/><path d="M237.523 347.807c3.693-14.718 9.136-22.487 24.58-17.72 7.482 2.31 10.628 12.581 2.582 23.741-8.384 11.629-30.854 8.698-27.162-6.02z" style="fill:#0193cf;fill-opacity:1;stroke:none;stroke-width:.187459px;stroke-linecap:butt;stroke-linejoin:miter;stroke-opacity:1" transform="matrix(.39837 .00796 -.00732 .3664 23.499 -29.17)"/></g><path style="fill:#0193cf;fill-opacity:1;stroke:none;stroke-width:.23967px;stroke-linecap:butt;stroke-linejoin:miter;stroke-opacity:1" d="M217.168 360.837c5.277-16.552.437-58.908-1.567-83.578-.542-6.667-29.773-2.486-30.835-.426-7.838 15.205-1.145 35.406-3.69 38.588-2.545 3.183-13.691-40.345-28.736-43.167-9.957-1.868-20.797-5.281-21.695 1.837-4.352 34.504-17.179 88.336-8.113 93.756 6.594 3.943 17.366.652 26.097-1.234 7.61-1.644-3.128-53.451 6.024-42.941 8.492 12.915 16.641 28.326 30.497 38.601 5.237 7.486 29.586 6.192 32.018-1.436z" transform="rotate(4.466 141.615 557.585) scale(.36244)"/><path d="M264.53 274.953c-.708 25.65-12 87.217-7.65 90.494 7.785 5.867 56.173 9.333 75.8 10.979 6.033-2.346 4.553-25.513-1.54-26.917-10.577-2.09-21.81-6.372-43.67-7.232.488-2.732.97-5.634 1.421-8.756 11.347 1.164 20.74 2.235 40.743 3.784 4.192.324 7.58-20.3 2.4-23.363-3.448-2.04-22.263-7.108-40.757-8.535.069-2.21.114-4.504.136-6.889 21.743-3.163 35.441 1.183 46.523 1.042 6.158-.258 9.445-20.76 3.642-23.85-11.889-3.777-75.076-13.437-77.049-.757z" style="fill:#0193cf;fill-opacity:1;stroke:none;stroke-width:.188966px;stroke-linecap:butt;stroke-linejoin:miter;stroke-opacity:1" transform="rotate(4.466 141.615 557.585) scale(.36244)"/><path d="M75.461 404.121c-8.489 9.379-53.46-21.901-58.051 22.872-1.462 54.205 57.951 15.133 62.484 29.276 5.427 16.937-14.938 20.426-39.226 24.655-26.06 4.537-54.39-19.281-51.856-61.898 2.34-39.347 57.96-60.866 83.684-35.555 3.309 3.256 7.6 15.53 2.965 20.65z" style="fill:#0193cf;fill-opacity:1;stroke:none;stroke-width:.615074px;stroke-linecap:butt;stroke-linejoin:miter;stroke-opacity:1" transform="rotate(4.466 141.615 557.585) scale(.36244)"/><path d="M274.418 455.619c3.958-16.916-4.197-58.76-8.135-83.196-1.064-6.604-29.876-.137-30.772 2-6.619 15.774 1.642 35.386-.645 38.759-2.287 3.373-16.82-39.144-32.041-40.775-10.073-1.079-21.148-3.629-21.484 3.538-1.625 34.74-10.179 89.413-.715 94.104 6.884 3.412 17.364-.716 25.92-3.283 7.455-2.237-7.322-53.04 2.627-43.282 9.483 12.207 18.818 26.93 33.439 36.084 5.809 7.051 29.981 3.846 31.806-3.95z" style="fill:#0193cf;fill-opacity:1;stroke:none;stroke-width:.23967px;stroke-linecap:butt;stroke-linejoin:miter;stroke-opacity:1" transform="rotate(4.466 141.615 557.585) scale(.36244)"/><g style="fill:#0193cf;fill-opacity:1"><path transform="rotate(16.935 8.005 241.657) scale(.10542)" d="M477.418 1047.602c-85.513.442-192.12 74.565-197.713 168.623-8.713 146.517 88.682 228.403 178.277 212.804 173.032-30.274 197.97-183.768 109.426-335.04-19.096-32.626-52.518-46.581-89.99-46.387zm-40.354 124.931a72.984 76.267 0 0 1 72.983 76.268 72.984 76.267 0 0 1-72.983 76.265 72.984 76.267 0 0 1-72.984-76.265 72.984 76.267 0 0 1 72.984-76.268z" style="fill:#0193cf;fill-opacity:1;stroke:none;stroke-width:2.11463px;stroke-linecap:butt;stroke-linejoin:miter;stroke-opacity:1"/><path transform="rotate(16.935 8.005 241.657) scale(.10542)" d="M440.346 1226.287a22.512 22.512 0 0 0-22.512 22.514 22.512 22.512 0 0 0 22.512 22.512 22.512 22.512 0 0 0 22.513-22.512 22.512 22.512 0 0 0-22.513-22.514zm-.504 6.266a13.094 13.094 0 0 1 13.094 13.093 13.094 13.094 0 0 1-13.094 13.094 13.094 13.094 0 0 1-13.094-13.094 13.094 13.094 0 0 1 13.094-13.093z" style="opacity:1;fill:#0193cf;fill-opacity:1;stroke:none;stroke-width:1.52225;stroke-linecap:round;stroke-linejoin:miter;stroke-miterlimit:20.8;stroke-dasharray:none;stroke-dashoffset:0;stroke-opacity:1;paint-order:stroke fill markers"/><path d="M116.097 420.046c-1.427-2.465-8.345 4.609-5.884 5.935l8.904 4.8c.831.448 2.511-1.173 2.015-2.03z" style="fill:#0193cf;fill-opacity:1;stroke:none;stroke-width:.224486px;stroke-linecap:butt;stroke-linejoin:miter;stroke-opacity:1" transform="rotate(16.938 96.346 256.216) scale(.36244)"/></g></g><g style="fill:#025"><path d="M-35.976 286.687c-15.603-.093-28.496 7.486-38.937 24.362-3.426 5.538 10.667 74.237 26.594 88.921 3.845 3.546 17.165-1.174 25.347-2.908 11.042-2.341-10.765-28.22-8.31-32.827 1.958-3.675 34.314-3.39 38.769-20.927 5.255-20.69-13.846-50.001-25.457-53.585-6.365-1.965-12.363-3.002-18.006-3.036zm6.955 32.554a8.917 8.917 0 0 1 8.404 5.801 8.912 8.912 0 0 1-1.482 8.776c3.024 3.565 13.454 9.062 9.073 10.695l-8.716 3.25-8.717 3.251c-4.407 1.643-.096-9.406-.144-14.109a8.912 8.912 0 0 1-6.715-5.636 8.912 8.912 0 0 1 5.236-11.464 8.896 8.896 0 0 1 3.06-.564z" style="fill:#025;stroke:none;stroke-width:.290866px;stroke-linecap:butt;stroke-linejoin:miter;stroke-opacity:1" transform="rotate(4.466 147.865 536.174) scale(.36244)"/><path transform="scale(.39844) rotate(4.467 918.137 1240.544)" style="fill:#025;stroke:none;stroke-width:.221799px;stroke-linecap:butt;stroke-linejoin:miter;stroke-opacity:1" d="M12.198 303.38c-3.794 15.118 15.246 53.85 19.02 75.69 1.02 5.902 28.28-.078 29.489-1.787 10.35-14.633 7.977-31.893 10.169-34.907 2.192-3.014 9.1 33.914 23.686 35.372 9.652.964 20.265 3.243 20.587-3.162 1.557-31.047 9.754-79.91.685-84.103-6.596-3.049-16.639.64-24.838 2.935-7.145 2 7.016 47.402-2.518 38.681-15.17-13.877-14.836-16.502-20.476-15.68-3.847.561-4.333 13.492-11.79 19.063-8.36 6.245-10.847-32.588-13.535-35.632-5.567-6.301-28.731-3.437-30.48 3.53z"/><g style="fill:#025;stroke:none"><path style="fill:#025;stroke:none;stroke-width:.171183px;stroke-linecap:butt;stroke-linejoin:miter;stroke-opacity:1" d="M239.19 366.82c-5.918 10.12 1.54 41.12.27 57.372-.344 4.392 22.26 4.926 23.543 3.918 7.1-33.785 2.128-46.717.85-58.442-.723-4.939-21.934-7.514-24.662-2.849z" transform="matrix(.39837 .00796 -.00732 .3664 21.85 -29.723)"/><path style="fill:#025;stroke:none;stroke-width:.187459px;stroke-linecap:butt;stroke-linejoin:miter;stroke-opacity:1" d="M237.523 347.807c3.693-14.718 9.136-22.487 24.58-17.72 7.482 2.31 10.628 12.581 2.582 23.741-8.384 11.629-30.854 8.698-27.162-6.02z" transform="matrix(.39837 .00796 -.00732 .3664 21.85 -29.723)"/></g><path d="M217.168 360.837c5.277-16.552.437-58.908-1.567-83.578-.542-6.667-29.773-2.486-30.835-.426-7.838 15.205-1.145 35.406-3.69 38.588-2.545 3.183-13.691-40.345-28.736-43.167-9.957-1.868-20.797-5.281-21.695 1.837-4.352 34.504-17.179 88.336-8.113 93.756 6.594 3.943 17.366.652 26.097-1.234 7.61-1.644-3.128-53.451 6.024-42.941 8.492 12.915 16.641 28.326 30.497 38.601 5.237 7.486 29.586 6.192 32.018-1.436z" style="fill:#025;stroke:none;stroke-width:.23967px;stroke-linecap:butt;stroke-linejoin:miter;stroke-opacity:1" transform="rotate(4.466 147.865 536.174) scale(.36244)"/><path style="fill:#025;stroke:none;stroke-width:.188966px;stroke-linecap:butt;stroke-linejoin:miter;stroke-opacity:1" d="M264.53 274.953c-.708 25.65-12 87.217-7.65 90.494 7.785 5.867 56.173 9.333 75.8 10.979 6.033-2.346 4.553-25.513-1.54-26.917-10.577-2.09-21.81-6.372-43.67-7.232.488-2.732.97-5.634 1.421-8.756 11.347 1.164 20.74 2.235 40.743 3.784 4.192.324 7.58-20.3 2.4-23.363-3.448-2.04-22.263-7.108-40.757-8.535.069-2.21.114-4.504.136-6.889 21.743-3.163 35.441 1.183 46.523 1.042 6.158-.258 9.445-20.76 3.642-23.85-11.889-3.777-75.076-13.437-77.049-.757z" transform="rotate(4.466 147.865 536.174) scale(.36244)"/><path style="fill:#025;stroke:none;stroke-width:.615074px;stroke-linecap:butt;stroke-linejoin:miter;stroke-opacity:1" d="M75.461 404.121c-8.489 9.379-53.46-21.901-58.051 22.872-1.462 54.205 57.951 15.133 62.484 29.276 5.427 16.937-14.938 20.426-39.226 24.655-26.06 4.537-54.39-19.281-51.856-61.898 2.34-39.347 57.96-60.866 83.684-35.555 3.309 3.256 7.6 15.53 2.965 20.65z" transform="rotate(4.466 147.865 536.174) scale(.36244)"/><path style="fill:#025;stroke:none;stroke-width:.23967px;stroke-linecap:butt;stroke-linejoin:miter;stroke-opacity:1" d="M274.418 455.619c3.958-16.916-4.197-58.76-8.135-83.196-1.064-6.604-29.876-.137-30.772 2-6.619 15.774 1.642 35.386-.645 38.759-2.287 3.373-16.82-39.144-32.041-40.775-10.073-1.079-21.148-3.629-21.484 3.538-1.625 34.74-10.179 89.413-.715 94.104 6.884 3.412 17.364-.716 25.92-3.283 7.455-2.237-7.322-53.04 2.627-43.282 9.483 12.207 18.818 26.93 33.439 36.084 5.809 7.051 29.981 3.846 31.806-3.95z" transform="rotate(4.466 147.865 536.174) scale(.36244)"/><g style="fill:#025"><path style="fill:#025;stroke:none;stroke-width:2.11463px;stroke-linecap:butt;stroke-linejoin:miter;stroke-opacity:1" d="M477.418 1047.602c-85.513.442-192.12 74.565-197.713 168.623-8.713 146.517 88.682 228.403 178.277 212.804 173.032-30.274 197.97-183.768 109.426-335.04-19.096-32.626-52.518-46.581-89.99-46.387zm-40.354 124.931a72.984 76.267 0 0 1 72.983 76.268 72.984 76.267 0 0 1-72.983 76.265 72.984 76.267 0 0 1-72.984-76.265 72.984 76.267 0 0 1 72.984-76.268z" transform="rotate(16.935 9.034 235.845) scale(.10542)"/><path style="opacity:1;fill:#025;fill-opacity:1;stroke:none;stroke-width:1.52225;stroke-linecap:round;stroke-linejoin:miter;stroke-miterlimit:20.8;stroke-dasharray:none;stroke-dashoffset:0;stroke-opacity:1;paint-order:stroke fill markers" d="M440.346 1226.287a22.512 22.512 0 0 0-22.512 22.514 22.512 22.512 0 0 0 22.512 22.512 22.512 22.512 0 0 0 22.513-22.512 22.512 22.512 0 0 0-22.513-22.514zm-.504 6.266a13.094 13.094 0 0 1 13.094 13.093 13.094 13.094 0 0 1-13.094 13.094 13.094 13.094 0 0 1-13.094-13.094 13.094 13.094 0 0 1 13.094-13.093z" transform="rotate(16.935 9.034 235.845) scale(.10542)"/><path style="fill:#025;fill-opacity:1;stroke:none;stroke-width:.224486px;stroke-linecap:butt;stroke-linejoin:miter;stroke-opacity:1" d="M116.097 420.046c-1.427-2.465-8.345 4.609-5.884 5.935l8.904 4.8c.831.448 2.511-1.173 2.015-2.03z" transform="rotate(16.938 97.375 250.404) scale(.36244)"/></g></g><g style="fill:#fff"><path style="fill:#fff;stroke:none;stroke-width:.290866px;stroke-linecap:butt;stroke-linejoin:miter;stroke-opacity:1" d="M-35.976 286.687c-15.603-.093-28.496 7.486-38.937 24.362-3.426 5.538 10.667 74.237 26.594 88.921 3.845 3.546 17.165-1.174 25.347-2.908 11.042-2.341-10.765-28.22-8.31-32.827 1.958-3.675 34.314-3.39 38.769-20.927 5.255-20.69-13.846-50.001-25.457-53.585-6.365-1.965-12.363-3.002-18.006-3.036zm6.955 32.554a8.917 8.917 0 0 1 8.404 5.801 8.912 8.912 0 0 1-1.482 8.776c3.024 3.565 13.454 9.062 9.073 10.695l-8.716 3.25-8.717 3.251c-4.407 1.643-.096-9.406-.144-14.109a8.912 8.912 0 0 1-6.715-5.636 8.912 8.912 0 0 1 5.236-11.464 8.896 8.896 0 0 1 3.06-.564z" transform="rotate(4.466 156.5 522.976) scale(.36244)"/><path d="M12.198 303.38c-3.794 15.118 15.246 53.85 19.02 75.69 1.02 5.902 28.28-.078 29.489-1.787 10.35-14.633 7.977-31.893 10.169-34.907 2.192-3.014 9.1 33.914 23.686 35.372 9.652.964 20.265 3.243 20.587-3.162 1.557-31.047 9.754-79.91.685-84.103-6.596-3.049-16.639.64-24.838 2.935-7.145 2 7.016 47.402-2.518 38.681-15.17-13.877-14.836-16.502-20.476-15.68-3.847.561-4.333 13.492-11.79 19.063-8.36 6.245-10.847-32.588-13.535-35.632-5.567-6.301-28.731-3.437-30.48 3.53z" style="fill:#fff;stroke:none;stroke-width:.221799px;stroke-linecap:butt;stroke-linejoin:miter;stroke-opacity:1" transform="scale(.39844) rotate(4.467 939.81 1207.42)"/><g style="fill:#fff;stroke:none"><path d="M239.19 366.82c-5.918 10.12 1.54 41.12.27 57.372-.344 4.392 22.26 4.926 23.543 3.918 7.1-33.785 2.128-46.717.85-58.442-.723-4.939-21.934-7.514-24.662-2.849z" style="fill:#fff;stroke:none;stroke-width:.171183px;stroke-linecap:butt;stroke-linejoin:miter;stroke-opacity:1" transform="matrix(.39837 .00796 -.00732 .3664 20.848 -30.435)"/><path d="M237.523 347.807c3.693-14.718 9.136-22.487 24.58-17.72 7.482 2.31 10.628 12.581 2.582 23.741-8.384 11.629-30.854 8.698-27.162-6.02z" style="fill:#fff;stroke:none;stroke-width:.187459px;stroke-linecap:butt;stroke-linejoin:miter;stroke-opacity:1" transform="matrix(.39837 .00796 -.00732 .3664 20.848 -30.435)"/></g><path style="fill:#fff;stroke:none;stroke-width:.23967px;stroke-linecap:butt;stroke-linejoin:miter;stroke-opacity:1" d="M217.168 360.837c5.277-16.552.437-58.908-1.567-83.578-.542-6.667-29.773-2.486-30.835-.426-7.838 15.205-1.145 35.406-3.69 38.588-2.545 3.183-13.691-40.345-28.736-43.167-9.957-1.868-20.797-5.281-21.695 1.837-4.352 34.504-17.179 88.336-8.113 93.756 6.594 3.943 17.366.652 26.097-1.234 7.61-1.644-3.128-53.451 6.024-42.941 8.492 12.915 16.641 28.326 30.497 38.601 5.237 7.486 29.586 6.192 32.018-1.436z" transform="rotate(4.466 156.5 522.976) scale(.36244)"/><path d="M264.53 274.953c-.708 25.65-12 87.217-7.65 90.494 7.785 5.867 56.173 9.333 75.8 10.979 6.033-2.346 4.553-25.513-1.54-26.917-10.577-2.09-21.81-6.372-43.67-7.232.488-2.732.97-5.634 1.421-8.756 11.347 1.164 20.74 2.235 40.743 3.784 4.192.324 7.58-20.3 2.4-23.363-3.448-2.04-22.263-7.108-40.757-8.535.069-2.21.114-4.504.136-6.889 21.743-3.163 35.441 1.183 46.523 1.042 6.158-.258 9.445-20.76 3.642-23.85-11.889-3.777-75.076-13.437-77.049-.757z" style="fill:#fff;stroke:none;stroke-width:.188966px;stroke-linecap:butt;stroke-linejoin:miter;stroke-opacity:1" transform="rotate(4.466 156.5 522.976) scale(.36244)"/><path d="M75.461 404.121c-8.489 9.379-53.46-21.901-58.051 22.872-1.462 54.205 57.951 15.133 62.484 29.276 5.427 16.937-14.938 20.426-39.226 24.655-26.06 4.537-54.39-19.281-51.856-61.898 2.34-39.347 57.96-60.866 83.684-35.555 3.309 3.256 7.6 15.53 2.965 20.65z" style="fill:#fff;stroke:none;stroke-width:.615074px;stroke-linecap:butt;stroke-linejoin:miter;stroke-opacity:1" transform="rotate(4.466 156.5 522.976) scale(.36244)"/><path d="M274.418 455.619c3.958-16.916-4.197-58.76-8.135-83.196-1.064-6.604-29.876-.137-30.772 2-6.619 15.774 1.642 35.386-.645 38.759-2.287 3.373-16.82-39.144-32.041-40.775-10.073-1.079-21.148-3.629-21.484 3.538-1.625 34.74-10.179 89.413-.715 94.104 6.884 3.412 17.364-.716 25.92-3.283 7.455-2.237-7.322-53.04 2.627-43.282 9.483 12.207 18.818 26.93 33.439 36.084 5.809 7.051 29.981 3.846 31.806-3.95z" style="fill:#fff;stroke:none;stroke-width:.23967px;stroke-linecap:butt;stroke-linejoin:miter;stroke-opacity:1" transform="rotate(4.466 156.5 522.976) scale(.36244)"/><g style="fill:#fff"><path transform="rotate(16.935 10.926 232.125) scale(.10542)" d="M477.418 1047.602c-85.513.442-192.12 74.565-197.713 168.623-8.713 146.517 88.682 228.403 178.277 212.804 173.032-30.274 197.97-183.768 109.426-335.04-19.096-32.626-52.518-46.581-89.99-46.387zm-40.354 124.931a72.984 76.267 0 0 1 72.983 76.268 72.984 76.267 0 0 1-72.983 76.265 72.984 76.267 0 0 1-72.984-76.265 72.984 76.267 0 0 1 72.984-76.268z" style="fill:#fff;stroke:none;stroke-width:2.11463px;stroke-linecap:butt;stroke-linejoin:miter;stroke-opacity:1"/><path transform="rotate(16.935 10.926 232.125) scale(.10542)" d="M440.346 1226.287a22.512 22.512 0 0 0-22.512 22.514 22.512 22.512 0 0 0 22.512 22.512 22.512 22.512 0 0 0 22.513-22.512 22.512 22.512 0 0 0-22.513-22.514zm-.504 6.266a13.094 13.094 0 0 1 13.094 13.093 13.094 13.094 0 0 1-13.094 13.094 13.094 13.094 0 0 1-13.094-13.094 13.094 13.094 0 0 1 13.094-13.093z" style="opacity:1;fill:#fff;fill-opacity:1;stroke:none;stroke-width:1.52225;stroke-linecap:round;stroke-linejoin:miter;stroke-miterlimit:20.8;stroke-dasharray:none;stroke-dashoffset:0;stroke-opacity:1;paint-order:stroke fill markers"/><path d="M116.097 420.046c-1.427-2.465-8.345 4.609-5.884 5.935l8.904 4.8c.831.448 2.511-1.173 2.015-2.03z" style="fill:#fff;fill-opacity:1;stroke:none;stroke-width:.224486px;stroke-linecap:butt;stroke-linejoin:miter;stroke-opacity:1" transform="rotate(16.938 99.267 246.684) scale(.36244)"/></g></g><g><path style="fill:#0193cf;fill-opacity:1;stroke:none;stroke-width:1.21344;stroke-linecap:butt;stroke-linejoin:miter;stroke-miterlimit:15;stroke-dasharray:none;stroke-opacity:1;paint-order:stroke fill markers" d="M31.768-41.19c-5.308.064-10.605.996-12.94 2.596-5.651 3.873-4.33 10.638-.484 13.588 1.852 1.42 3.943 1.551 5.742 1.346 3.726-.426 7.548-2.443 10.144-2.47.85-.01 1.486.139 2.034 1.685.637 1.798-1.606 3.314-6.631 5.35-5.194 2.103-12.582 4.051-13.713 8.702C15.13-7.14 12.385.211 18.674 1.346 30.56 3.49 48.724 6.16 53.479 1.79c.993 1.318 2.14 2.503 3.544 3.39 7.343 4.637 19.03 2.838 25.563-5.05.025 2.346.922 4.42 4.023 4.98 10.863 1.96 27.088 4.423 33.434 1.498.617.589 1.402 1.075 2.59 1.29 12.456 2.247 31.982 5.166 35.554-.147 2.352-3.497 1.046-8.674.553-11.734-.516-3.208-3.99-3.672-7.443-3.538 4.476-4.693 7.168-10.786 3.637-18.806l-.014-.031-.016-.03c-2.594-5.566-9.277-7.604-15.127-8.107a41.628 41.628 0 0 0-4.048-.143c-5.309.063-10.608.998-12.942 2.598-1.83 1.254-2.867 2.822-3.385 4.455-.18-.515-.26-.997-.494-1.53l-.014-.03-.015-.03c-2.594-5.566-9.278-7.604-15.127-8.107a41.666 41.666 0 0 0-4.049-.14c-5.308.062-10.606.994-12.941 2.595-.477.326-.835.699-1.215 1.062-1.637-2.24-3.752-3.934-6.277-4.877-1.802-.67-3.573-1.102-5.305-1.293a19.162 19.162 0 0 0-1.719-.109c-12.192-.204-19.368 11.45-21.133 26.355a13.728 13.728 0 0 0-3.779-.382c4.478-4.694 7.17-10.787 3.639-18.809l-.014-.031-.016-.03c-2.594-5.566-9.278-7.602-15.127-8.105a41.649 41.649 0 0 0-4.048-.144zm70.4 18.825c.85-.01 1.485.14 2.033 1.685.638 1.798-1.605 3.313-6.63 5.348-3.077 1.246-6.791 2.508-9.651 4.238.868-3.053 1.379-6.044 1.428-8.86.918.15 1.831.158 2.675.061 3.726-.426 7.549-2.444 10.145-2.472zm-30.102.752a2.06 2.06 0 0 1 .307.01c.279.03.576.132.848.306 1.587 1.016 2.469 4.263.974 7.528-1.356 2.961-3.606 3.549-4.744 2.82-1.587-1.016-2.47-4.263-.974-7.528.988-2.158 2.469-3.089 3.59-3.136zm48.366.902c.531.841 1.104 1.668 1.873 2.258 1.851 1.42 3.943 1.551 5.742 1.346 3.726-.426 7.548-2.443 10.144-2.471.85-.01 1.486.14 2.034 1.685.637 1.799-1.606 3.313-6.631 5.348-3.627 1.469-8.22 2.915-11.11 5.205-.857-2.639-4.005-3.088-7.214-2.963 2.759-2.892 4.809-6.32 5.162-10.408zM41.238-8.957v.004l-.08.058c.028-.018.053-.043.08-.062zm67.936 3.766v.004l-.08.058c.027-.019.052-.044.08-.062zm36.023 2.787.002.004-.08.058c.027-.018.051-.044.078-.062z" transform="matrix(.47395 -.03666 .03666 .47395 -1.917 89.912)"/><path style="fill:#025;fill-opacity:1;stroke:none;stroke-width:2.18013;stroke-linecap:butt;stroke-linejoin:miter;stroke-miterlimit:15;stroke-dasharray:none;stroke-opacity:1;paint-order:stroke fill markers" d="M-128.605 340.762c-.428.005-.85.02-1.27.045-20.504 1.242-30.857 25.708-28.727 56.492.535 7.725 4.488 13.029 10.032 15.957 12.65 6.682 33.57.997 40.978-16.477 11.54-27.219 2.9-50.522-11.414-54.64-2.916-.836-5.685-1.281-8.303-1.366a28.87 28.87 0 0 0-1.296-.011zm55.16.64a69.191 69.191 0 0 0-6.723.282c-9.152.817-17.327 3.247-19.77 5.214-6.604 5.32-3.479 12.611.557 15.239 8.9 5.793 27.206-14.932 34.268.97 7.062 15.903-32.483 21.363-34.084 31.202-1.06 6.51-3.111 13.623 1.537 14.095 22.53 2.292 54.772 3.645 58.158-2.341 2.463-4.355.152-11.317-1.213-16.971-1.19-4.928-28.91 5.196-22.21-.926 11.794-9.475 21.463-21.079 12.808-37.227-3.98-7.061-13.563-9.452-23.328-9.537zm64.918 0a69.192 69.192 0 0 0-6.723.282c-9.152.817-17.327 3.247-19.77 5.214-6.604 5.32-3.479 12.611.557 15.239 8.9 5.793 27.204-14.932 34.266.97C6.865 379.01-32.678 384.47-34.28 394.31c-1.06 6.51-3.111 13.623 1.537 14.095 22.53 2.292 54.772 3.645 58.158-2.341 2.463-4.355.152-11.317-1.213-16.971-1.19-4.928-28.91 5.196-22.21-.926 11.794-9.475 21.463-21.079 12.808-37.227-3.98-7.061-13.563-9.452-23.328-9.537Zm-187.133 2.67a69.212 69.212 0 0 0-6.723.28c-9.152.817-17.326 3.247-19.77 5.214-6.604 5.32-3.48 12.611.555 15.239 8.9 5.793 27.204-14.932 34.266.97 7.062 15.903-32.479 21.365-34.08 31.204-1.06 6.51-3.111 13.62 1.537 14.093 22.53 2.292 54.772 3.647 58.158-2.34 2.463-4.354.153-11.316-1.213-16.97-1.19-4.928-28.91 5.194-22.213-.928 11.795-9.475 21.466-21.079 12.811-37.227-3.98-7.061-13.563-9.45-23.328-9.535zm68.06 18.418a9.186 9.186 0 0 1 4.404 1.106c5.949 3.19 8.38 12.28 5.432 20.303-2.948 8.023-10.159 11.941-16.107 8.751-5.948-3.189-8.38-12.28-5.432-20.302 2.008-5.465 6.12-9.247 10.64-9.79.356-.042.71-.065 1.063-.068z" transform="matrix(.26458 0 0 .26458 65.31 -19.861)"/><path style="fill:#fff;fill-opacity:1;stroke:none;stroke-width:1.21344;stroke-linecap:butt;stroke-linejoin:miter;stroke-miterlimit:15;stroke-dasharray:none;stroke-opacity:1;paint-order:stroke fill markers" d="M71.876-38.055a14.543 14.543 0 0 0-.706-.03c-11.432-.19-18.227 12.942-18.366 30.116-.035 4.31 1.93 7.423 4.881 9.286 6.733 4.251 18.587 1.994 23.448-7.384 7.572-14.61 3.778-27.912-3.988-30.812-1.583-.589-3.1-.955-4.55-1.114a16.058 16.058 0 0 0-.719-.062zm30.583 2.723a38.511 38.511 0 0 0-3.743-.132c-5.114.06-9.754 1.058-11.194 2.045-3.894 2.668-2.472 6.849-.345 8.48 4.69 3.597 15.738-7.118 18.974 2.01 3.236 9.128-18.943 10.46-20.254 15.851-.867 3.568-2.31 7.426.248 7.888 12.405 2.24 30.238 4.374 32.375 1.197 1.553-2.31.57-6.273.055-9.47-.449-2.785-16.266 1.644-12.286-1.466 6.952-4.752 12.816-10.776 8.706-20.109-1.906-4.09-7.12-5.828-12.536-6.294zm36.025 2.787a38.511 38.511 0 0 0-3.743-.132c-5.114.06-9.754 1.058-11.194 2.045-3.894 2.668-2.472 6.849-.345 8.48 4.69 3.597 15.737-7.118 18.973 2.01 3.236 9.128-18.942 10.46-20.253 15.851-.867 3.568-2.31 7.426.248 7.888 12.405 2.239 30.238 4.374 32.375 1.197 1.553-2.31.57-6.273.055-9.47-.449-2.785-16.266 1.643-12.286-1.467 6.952-4.751 12.816-10.775 8.706-20.108-1.906-4.09-7.12-5.828-12.536-6.294zm-103.96-6.552a38.523 38.523 0 0 0-3.743-.133c-5.114.06-9.754 1.058-11.195 2.045-3.893 2.668-2.473 6.849-.346 8.48 4.69 3.597 15.737-7.118 18.973 2.01 3.237 9.128-18.94 10.461-20.251 15.852-.868 3.568-2.311 7.425.248 7.887C30.614-.717 48.448 1.42 50.584-1.757c1.554-2.311.57-6.274.056-9.47-.45-2.786-16.267 1.641-12.287-1.469 6.952-4.751 12.816-10.775 8.707-20.108-1.906-4.09-7.121-5.827-12.536-6.293zm36.978 13.143a5.113 5.113 0 0 1 2.397.803c3.163 2.025 4.122 7.174 2.142 11.5-1.98 4.325-6.15 6.19-9.314 4.165-3.164-2.026-4.123-7.175-2.143-11.5 1.35-2.947 3.793-4.869 6.325-4.976.2-.008.397-.006.593.008z" transform="matrix(.47395 -.03666 .03666 .47395 -1.917 89.912)"/></g></g></svg>