<svg xmlns="http://www.w3.org/2000/svg" width="621.237" height="644.64" viewBox="0 0 164.369 170.561"><path fill="#8729a3" stroke="#025" stroke-linecap="round" stroke-miterlimit="15" stroke-width="20" d="M115.703 87.907a113.785 122.626 0 0 0-109.738 90.76h219.571a113.785 122.626 0 0 0-109.833-90.76Z" paint-order="stroke fill markers" transform="matrix(.63349 0 0 .67413 9.482 -25.139)"/><path fill="#eb3297" stroke="#025" stroke-linecap="round" stroke-miterlimit="15" stroke-width="6.433" d="M118.773 103.45a101.046 86.959 0 0 0-99.29 71.16h198.6a101.046 86.959 0 0 0-99.31-71.16z" paint-order="stroke fill markers" transform="matrix(.63349 0 0 .67413 9.482 -25.139)"/><path fill="#ff80b2" stroke="#025" stroke-linecap="round" stroke-miterlimit="15" stroke-width="5.518" d="M121.396 115.576a93.836 88.96 0 0 0-92.175 72.602h184.353a93.836 88.96 0 0 0-92.178-72.602z" paint-order="stroke fill markers" transform="matrix(.63349 0 0 .67413 9.482 -25.139)"/><g stroke-width="1.306"><path fill="#4d4d4d" stroke="gray" stroke-miterlimit="15" stroke-width="3.917" d="M68.01 120.054s50.735-33.353 57.596 8.27c18.867 2.576 11.474 21.7 6.031 36.82 0 0 47.625 17.06 47.625 30.28-17.88 30.97-42.695-9.027-57.13-14.833z" transform="matrix(.46903 0 0 .4697 64.915 -49.526)"/><path fill="#0193cf" stroke="#0193cf" stroke-miterlimit="15" stroke-width="3.917" d="M124.478 171.18c6.602 13.461 18.041 27.07 6.14 63.64-1.537-5.283-1.721-11.787-4.013-17.967 1.141 12.098-3.799 32.705-7.92 49.53-1.474-7.468 1.35-30.155-1.73-30.875.85 7.865-4.424 23.143-6.002 28.52l-5.788-16.193.687-71.32z" transform="matrix(.46903 0 0 .4697 64.915 -49.526)"/><path fill="none" stroke="gray" stroke-miterlimit="15" stroke-width="1.959" d="M125.606 128.324c-9.338-28.03-56.485-7.153-49.822 2.366" transform="matrix(.46903 0 0 .4697 64.915 -49.526)"/><path fill="#0193cf" stroke="#6aabd9" stroke-miterlimit="15" stroke-width="3.917" d="M87.907 286c-.276-.139 14.315-17.926 34.396-18.332 32.199-.652 36.43 25.546 36.191 25.891-2.915-3.894-8.912-10.979-15.024-13.04 8.203 7.455 11.488 17.136 10.016 26.08-2.796-6.382-6.482-10.44-12.038-14.025 5.167 7.417 8.387 16.897 7.009 23.97l-17.272-.495c0-3.303-6.1-15.39-16.914-16.253-7.517-.6-11.717 15.97-11.717 15.97l-7.087-.284z" transform="matrix(.46903 0 0 .4697 64.915 -49.526)"/><path fill="#f37737" d="M118.82 88.687c-2.345.033-4.692 1.7-6.924 5.288l1.12 4.82s1.971-7.783 5.497-7.501c5.071.406 7.933 6.083 7.933 7.634l5.04.105c-2.013-4.455-7.505-10.42-12.666-10.346z"/><path fill="#fff697" d="M134.546 99.155c-6.553-15.393-20.883-15.814-23.206-8.164l.555 2.978c1.608-2.578 8.002-12.215 19.59 5.057z"/><path fill="#69207f" d="M122.978 76.198c-.23-.002-.462 0-.698.005-5.554.112-10.21 3.063-13.072 5.48l.711 3.276c6.604-7.145 15.824-6.068 22.293-2.716l-.004-.004c1.308.442 2.603 1.376 3.756 2.434 1.482 1.195 2.626 2.476 3.291 3.692.11-.16-1.811-12.087-16.277-12.167z"/><path fill="none" stroke="gray" stroke-miterlimit="15" stroke-width="1.959" d="M125.606 128.324c-4.818-8.676-23.169 18.833-23.741 20.131" transform="matrix(.46903 0 0 .4697 64.915 -49.526)"/><path fill="#7cc041" d="m119.962 35.342-5.614 20.459-.107 11.086 2.716 7.606c4.703-13.437 4.887-30.856 3.005-39.151Zm-.665 47.756c-3.218-.035-6.103 1.16-8.688 2.991.578.055.247 5.178.732 4.908 3.383-6.392 14.41-7.445 23.206 8.164.624-3.208-.374-6.581-2.789-10.305-3.497-5.393-8.698-5.719-12.461-5.758z"/><path fill="#9dd8f6" stroke="#6aabd9" stroke-miterlimit="15" stroke-width="3.917" d="M68.536 162.685s-5.816 22.904-28.915 18.71c-3.533-.642-3.555 10.577-2.389 14.72 5.383 15.7 31.187 22.147 42.454 18.92 0 0 1.29 4.687-.189 10.205-1.478 5.518-22.3 44.034-35.152 68.225-12.85 24.19-13.796 22.49-13.796 22.49l72.005-.19s-7.182-22.49-.945-51.216c6.236-28.726 17.576-75.784 17.576-75.784 7.668-12.702 20.993-43.368 12.85-61.232-3.383 7.5-14.93 9.246-19.276 20.6l-11.906-8.127H77.607l-10.205 8.316z" transform="matrix(.46903 0 0 .4697 64.915 -49.526)"/><path fill="#9dd8f6" stroke="#6aabd9" stroke-miterlimit="15" stroke-width="3.917" d="m60.67 258.647 15.1 21.515s4.544 7.75 13.899 6.815c9.354-.935 14.299-3.207 13.23-8.82-1.07-5.612-9.622-19.243-12.696-22.05-3.073-2.806-28.865-21.38-37.417-20.044-8.553 1.336-9.915 8.85-8.712 12.457 1.203 3.609 16.596 10.127 16.596 10.127z" transform="matrix(.46903 0 0 .4697 64.915 -49.526)"/><path fill="#9dd8f6" stroke="#6aabd9" stroke-miterlimit="15" stroke-width="3.917" d="M105.165 247.835c-3.591-4.242-25.118-17.92-31.399-17.92-15.538 0-33.715 20.104-40.49 37.953-2.23 5.873-6.816 19.243 2.27 18.708 9.088-.534 20.982-6.681 23.12-11.492 2.138-4.811 6.147-27.262 13.096-28.865 6.949-1.604 24.543 19.624 29.827 17.901 8.888-2.899 11.583-6.826 3.576-16.285z" transform="matrix(.46903 0 0 .4697 64.915 -49.526)"/><path stroke="gray" stroke-miterlimit="15" stroke-width="14.806" d="M470.469 646.979c-1.49 15.115-3.533 20.186-8.865 35.568 53.318 21.45 144.112 166.33 211.289 63.605-41.578 50.391-202.424-99.173-202.424-99.173z" transform="matrix(.1241 0 0 .12428 64.915 -49.526)"/><path fill="#69207f" d="m123.3 30.88-1.1 4.42c-1.383 3.84.418 7.042 1.586 14.82 0 0 .218 1.055.542 2.601-.01-.13-.018-.26-.03-.387 1.075 2.903 1.16 5.958 1.882 8.44 5.582-17.178.217-23.57-2.88-29.893z"/><path stroke="#000" stroke-miterlimit="15" stroke-width="1.959" d="M126.151 197.308c1.103-6.463 4.395-14.533.267-22.45-4.798-9.203-14.772-21.428-14.772-21.428l-73.16-3.963s-11.756 44.7 20.313 28.064c4.846 20.634 19.49 24.577 29.987 22.88 13.245-2.141 17.066-23.896 17.066-23.896s8.98 2.459 11.947 5.425c2.564 2.564 1.002 15.569 1.002 15.569 1.276 6.598 6.9 2.439 7.35-.2z" transform="matrix(.46903 0 0 .4697 64.915 -49.526)"/><path fill="gray" d="m113.044 23.69-7.726-.422-6.438 18.784c.515.413.991.859 1.905.928 1.726-2.8 3.869-8.744 5.98-12.78 1.924-3.675 2.86-1.25 3.606-1.46 3.032-.848 2.673-5.05 2.673-5.05zM88.172 20.964 85.23 34.968c.211.143.432.271.782.261.943-1.631 2.013-2.935 3.204-3.957 2.186-1.88 2.299-3.616 2.79-5.102.973-2.94 3.778-4.725 3.878-4.787z"/><g stroke="gray" stroke-linecap="round" stroke-width="6.052" paint-order="stroke fill markers" transform="matrix(.0828 .06034 -.08516 .06182 139.062 14.937)"><circle cx="-204.797" cy="70.009" r="10.131"/><circle cx="-177.538" cy="90.789" r="10.131"/><circle cx="-177.159" cy="120.143" r="10.131"/><circle cx="-205.231" cy="119.541" r="10.131"/><circle cx="-234.059" cy="123.231" r="10.131"/></g><path fill="#f37737" stroke="#0193cf" stroke-miterlimit="20.8" stroke-width="3.917" d="M17.42 135.85c9.142-3.66 15.307-2.74 15.307-2.74-11.692 5.042-10.22 12.436-12.694 19.125 4.8-5.103 9.798-8.722 15.308-8.504-12.018 5.532-10.542 22.352-13.702 40.254 23.465-45.916 44.786-23.396 91.187-35.719-20.162-47.501-83.276-45.37-95.407-12.416Z" transform="matrix(.46903 0 0 .4697 64.915 -49.526)"/><path fill="#ee4035" d="M92.312 2.971c-8.638-.016-16.56 4.058-19.227 11.314 3.564-1.428 7.645-1.513 8.422-1.453 11.91-5.448 26.676-4.647 36.328 7.286C112.81 8.264 102.1 2.99 92.312 2.97Z"/><path fill="#6aabd9" d="M85.888 38.802a1.032 1.154 88.29 0 0-.192.599 1.032 1.154 88.29 0 0 1.183.998 1.032 1.154 88.29 0 0 1.123-1.066 1.032 1.154 88.29 0 0-.004-.05 1.032 1.154 88.29 0 1-.93.467 1.032 1.154 88.29 0 1-1.18-.948z" paint-order="stroke fill markers"/><path fill="#fff697" d="M75.065 36.895c11.005-21.567 21.006-10.99 42.77-16.777-20.024-8.8-37.305.817-42.77 16.777z"/><path fill="#6aabd9" d="M125.776 15.908c-.095 4.152-2.008 6.634-4.074 8.976 1.798-2.677 3.432-5.472 4.074-8.976z"/></g><path fill="#025" d="M57.938 65.282c-1.606.073-3.222.547-4.51 1.53-4.208-1.69-8.951-1.157-13.194.075-.403.169-.834.474-1.205.087-4.709-2.595-11.092-1.485-14.7 2.486-2.738-2.549-6.672-3.126-10.276-2.98-3.23.135-6.537.911-9.246 2.73-3.236 2.622-3.79 8.097-.768 11.092.337.378.72.712 1.129 1.01-1.84 1.964-2.344 4.779-2.268 7.376.083 1.934 1.016 3.838 2.636 4.926l-.183.015a28.937 28.937 0 0 0-3.22 3.683c-3.203 4.373 1.52 31.635 7.393 37.965.455.49.954.82 1.445 1.079a6.203 6.203 0 0 0 2.984 1.389c2.284.985 5.314.657 7.799.234-.16.647-.287 1.303-.38 1.963-1.594 11.534 2.623 20.7 9.651 25.35l-.08-.053.167.117-.028-.023c1.915 1.436 4.044 2.499 6.301 3.118 2.532.963 5.234 1.374 7.97 1.115 5.515-.522 12.23-1.137 15.931-4.12.35.268.697.537 1.063.78-.03-.022-.06-.042-.09-.062l.162.114-.028-.021c1.854 1.396 3.94 2.44 6.188 3.037l-.485-.163a17.5 17.5 0 0 0 4.46 1.166h.004c7.068.87 12.896-.462 17.376-3.575.348.398.736.765 1.22 1.054.082.05.157.073.237.118.233.207.467.417.765.594.836.5 1.696.771 2.53.954 3.842 1.68 8.69.222 11.474-.381 2.629-.57 3.662-3.287 4.038-6.466a27.9 27.9 0 0 0 2.903 2.586c.52.577 1.105.99 1.685 1.336 1.183.977 2.728 1.613 3.987 1.908 4.641 1.803 13.49 1.179 15.192-4.173 1.997-6.283.803-18.606-.035-27.624 6.547 1.46 14.623 2.697 18.866 3.39l.913.148.886-.267c5.091-1.536 6.06-11.625 2.538-15.806 2.517-2.85 3.258-8.481 1.714-11.855 5.5-1.546 7.695-12.565 2.8-15.683l-.307-.196-.338-.137c-.409-.166-.974-.343-1.513-.518-.166-.138-.3-.29-.492-.414l-.307-.196-.338-.136c-3.745-1.52-19.944-5.345-26.981-4.35-.793.114-1.57.313-2.32.594a8.427 8.427 0 0 0-2.392-1.166c-.132-.04-.258-.07-.388-.107-.697-.49-1.44-.907-2.263-1.158-5.306-1.622-9.098-.486-11.655 2.423-3.138-1.559-13.435-2.156-15.6 1.345-.015.024-.026.05-.041.076-1.243-1.486-2.695-2.666-4.453-3.14l-.236-.066c-.702-.497-1.478-.946-2.414-1.198-2.557-.69-8.432-2.895-11.357.072l-.037-.01c-1.17-.914-2.234-1.357-3.482-1.677-.947-.242-2.318-.071-2.928-.155 1.914-.801 3.87-2.867 4.127-4.925.684-2.247.43-5.022-1.419-6.656-.195-.253-.68-.527-1.005-.765.2-2.272-.17-4.956-2.169-6.374-2.363-1.779-5.652-1.834-8.343-.841-.363.338-.584-.397-.938-.461a7.073 7.073 0 0 0-4.122-1.137zm-27.07 99.9c.024.019.048.036.073.053zm31.318.93c.02.016.04.03.062.044z"/><g fill="#0193cf"><path d="M22.757 93.242c-5.635-.474-10.508 1.9-14.757 7.704-1.394 1.904 1.76 27.126 7.1 32.881 1.29 1.39 6.236.06 9.241-.335 4.056-.535-3.093-10.501-2.076-12.097.811-1.272 12.494-.256 14.6-6.467 2.482-7.328-3.593-18.458-7.687-20.081-2.245-.89-4.383-1.434-6.42-1.605zm1.595 11.96a3.232 3.232 0 0 1 2.873 2.332 3.23 3.23 0 0 1-.784 3.13c.992 1.373 4.606 3.654 2.977 4.12l-3.241.929-3.242.928c-1.639.47.231-3.401.346-5.102a3.23 3.23 0 0 1-2.267-2.226 3.23 3.23 0 0 1 2.216-3.994 3.224 3.224 0 0 1 1.121-.118zM36.688 94.45c-1.976 5.887 4.385 21.863 5.206 30.656.222 2.376 11.236.847 11.77.205 4.565-5.49 4.158-12.42 5.123-13.55.964-1.13 2.562 13.754 8.31 14.786 3.805.683 7.95 1.917 8.276-.617 1.583-12.284 6.355-31.44 2.883-33.387-2.525-1.416-6.63-.262-9.957.395-2.9.573 1.315 19.047-2.201 15.287-5.595-5.983-5.381-7.016-7.647-6.864-1.546.103-2.14 5.225-5.275 7.206-3.515 2.222-3.297-13.281-4.27-14.574-2.017-2.676-11.307-2.257-12.218.456zM116.1 107.137c-2.432 3.66.312 15.078-.312 21.023-.17 1.607 8.831 1.982 9.35 1.623 3.075-12.322 1.19-17.1.766-21.406-.252-1.816-8.683-2.928-9.804-1.24zM115.575 100.157c1.579-5.363 3.804-8.166 9.922-6.297 2.963.906 4.142 4.694.855 8.72-3.426 4.194-12.355 2.94-10.777-2.422zM112.135 127.18c2.374-5.833 1.82-21.274 1.793-30.245-.008-2.424-10.688-1.738-11.13-1.024-3.261 5.273-1.413 12.761-2.422 13.84-1.01 1.078-3.809-14.965-9.165-16.41-3.546-.956-7.366-2.495-7.892.052-2.546 12.345-8.7 31.434-5.577 33.649 2.271 1.61 6.257.725 9.465.29 2.796-.38.378-19.402 3.388-15.346 2.704 4.906 5.214 10.705 9.93 14.809 1.682 2.852 10.516 3.072 11.61.384zM131.673 97.483c-.98 9.248-6.797 31.176-5.318 32.483 2.647 2.34 20.034 4.958 27.08 6.106 2.246-.677 2.365-9.09.203-9.77-3.763-1.053-7.701-2.917-15.576-3.845.254-.973.51-2.008.76-3.124 4.068.741 7.432 1.393 14.616 2.517 1.506.236 3.312-7.12 1.527-8.374-1.189-.834-7.844-3.197-14.487-4.234.088-.797.169-1.624.244-2.486 7.946-.529 12.773 1.428 16.781 1.69 2.233.08 3.999-7.235 1.99-8.515-4.19-1.7-26.75-6.974-27.82-2.448z"/><path d="M59.71 138.82c-3.333 3.15-18.7-9.422-21.622 6.627-2.058 19.545 20.513 7.103 21.752 12.342 1.483 6.273-5.975 6.959-14.87 7.801-9.545.904-19.11-8.502-16.99-23.83 1.955-14.15 22.66-20.357 31.241-10.485 1.104 1.27 2.308 5.826.489 7.545zM130.147 163.044c1.908-6.001.142-21.351-.591-30.292-.198-2.416-10.792-.893-11.176-.146-2.837 5.513-.405 12.833-1.327 13.987-.921 1.154-4.973-14.619-10.427-15.638-3.61-.674-7.539-1.908-7.863.672-1.567 12.508-6.201 32.022-2.914 33.984 2.391 1.427 6.295.231 9.459-.455 2.757-.598-1.15-19.372 2.17-15.565 3.083 4.678 6.04 10.262 11.065 13.982 1.9 2.712 10.725 2.236 11.604-.53z"/><path d="M86.716 128.457c-8.637-2.581-21.664 1.62-25.117 10.934-5.378 14.509 1.93 25.757 11.445 26.935 18.38 2.26 25.608-12.453 21.323-30.428-.924-3.876-3.866-6.31-7.65-7.441zm-7.906 11.36a7.694 8.04 16.935 0 1 5.019 9.933 7.694 8.04 16.935 0 1-9.703 5.45 7.694 8.04 16.935 0 1-5.018-9.933 7.694 8.04 16.935 0 1 9.702-5.45z"/><path d="M77.49 145.339a2.373 2.373 0 0 0-2.96 1.579 2.373 2.373 0 0 0 1.578 2.961 2.373 2.373 0 0 0 2.962-1.579 2.373 2.373 0 0 0-1.58-2.961zm-.243.616a1.38 1.38 0 0 1 .919 1.723 1.38 1.38 0 0 1-1.723.918 1.38 1.38 0 0 1-.918-1.723 1.38 1.38 0 0 1 1.722-.918z" paint-order="stroke fill markers"/><path d="M74.724 140.942c-.235-1.006-3.38.716-2.667 1.436l2.58 2.605c.241.243.995-.142.913-.492z"/></g><g fill="#025"><path d="M21.109 92.69c-5.635-.474-10.508 1.9-14.757 7.704-1.394 1.905 1.76 27.126 7.1 32.881 1.29 1.39 6.235.06 9.24-.335 4.057-.534-3.093-10.5-2.075-12.096.81-1.273 12.494-.257 14.599-6.468 2.483-7.328-3.592-18.458-7.686-20.08-2.245-.89-4.383-1.434-6.421-1.606zm1.594 11.96a3.232 3.232 0 0 1 2.873 2.333 3.23 3.23 0 0 1-.783 3.13c.992 1.373 4.606 3.653 2.977 4.12l-3.241.928-3.242.929c-1.639.469.23-3.402.346-5.102a3.23 3.23 0 0 1-2.267-2.227 3.23 3.23 0 0 1 2.215-3.994 3.224 3.224 0 0 1 1.122-.118zM35.04 93.9c-1.977 5.887 4.384 21.863 5.206 30.656.222 2.376 11.236.847 11.769.205 4.565-5.491 4.158-12.421 5.123-13.55.964-1.13 2.562 13.754 8.31 14.786 3.805.682 7.95 1.917 8.277-.618 1.582-12.284 6.354-31.44 2.882-33.387-2.526-1.415-6.63-.262-9.958.396-2.9.572 1.316 19.047-2.2 15.287-5.596-5.983-5.382-7.016-7.647-6.864-1.546.103-2.14 5.225-5.275 7.206-3.515 2.221-3.298-13.281-4.271-14.574-2.016-2.676-11.306-2.257-12.217.456zM114.451 106.584c-2.432 3.66.312 15.078-.312 21.023-.17 1.607 8.831 1.982 9.35 1.623 3.075-12.322 1.19-17.1.766-21.406-.252-1.816-8.683-2.928-9.804-1.24zM113.926 99.604c1.579-5.363 3.804-8.166 9.922-6.297 2.963.906 4.142 4.694.855 8.72-3.426 4.194-12.355 2.94-10.777-2.422zM110.487 126.628c2.374-5.832 1.82-21.274 1.793-30.245-.008-2.424-10.688-1.738-11.13-1.024-3.261 5.273-1.413 12.762-2.423 13.84-1.009 1.078-3.808-14.965-9.165-16.41-3.545-.955-7.365-2.495-7.89.052-2.547 12.345-8.701 31.435-5.578 33.649 2.271 1.61 6.256.726 9.464.29 2.797-.379.379-19.402 3.389-15.346 2.704 4.907 5.214 10.705 9.93 14.809 1.681 2.853 10.516 3.072 11.61.385zM130.025 96.931c-.98 9.249-6.798 31.176-5.318 32.483 2.647 2.34 20.034 4.958 27.08 6.107 2.245-.678 2.365-9.09.203-9.77-3.763-1.054-7.701-2.918-15.576-3.846.253-.973.51-2.008.76-3.123 4.068.74 7.432 1.393 14.616 2.517 1.505.235 3.312-7.122 1.526-8.374-1.188-.835-7.844-3.197-14.486-4.235.087-.796.168-1.624.244-2.485 7.946-.53 12.773 1.427 16.78 1.69 2.233.08 4-7.236 1.99-8.516-4.19-1.7-26.749-6.974-27.82-2.448z"/><path d="M58.061 138.269c-3.332 3.15-18.699-9.423-21.621 6.626-2.058 19.545 20.513 7.104 21.751 12.342 1.483 6.273-5.974 6.96-14.87 7.802-9.544.904-19.108-8.502-16.99-23.83 1.956-14.152 22.661-20.358 31.242-10.486 1.104 1.27 2.308 5.826.488 7.546zM128.499 162.492c1.908-6 .142-21.35-.592-30.292-.198-2.416-10.791-.892-11.175-.145-2.837 5.513-.406 12.832-1.327 13.987-.922 1.154-4.973-14.62-10.427-15.638-3.61-.675-7.54-1.908-7.863.672-1.567 12.507-6.201 32.02-2.914 33.983 2.391 1.427 6.294.231 9.459-.455 2.756-.598-1.15-19.372 2.17-15.565 3.082 4.678 6.04 10.262 11.065 13.982 1.9 2.712 10.725 2.236 11.604-.53z"/><path d="M85.068 127.905c-8.637-2.581-21.665 1.62-25.117 10.934-5.378 14.509 1.93 25.758 11.444 26.936 18.38 2.26 25.608-12.454 21.324-30.428-.924-3.877-3.866-6.31-7.651-7.442zm-7.906 11.36a7.694 8.04 16.935 0 1 5.018 9.933 7.694 8.04 16.935 0 1-9.702 5.45 7.694 8.04 16.935 0 1-5.018-9.933 7.694 8.04 16.935 0 1 9.702-5.45z"/><path d="M75.842 144.787a2.373 2.373 0 0 0-2.961 1.58 2.373 2.373 0 0 0 1.579 2.96 2.373 2.373 0 0 0 2.961-1.578 2.373 2.373 0 0 0-1.579-2.962zm-.243.616a1.38 1.38 0 0 1 .919 1.723 1.38 1.38 0 0 1-1.723.918 1.38 1.38 0 0 1-.918-1.722 1.38 1.38 0 0 1 1.722-.919z" paint-order="stroke fill markers"/><path d="M73.075 140.39c-.234-1.006-3.38.717-2.666 1.436l2.58 2.605c.24.243.994-.142.913-.491z"/></g><g fill="#fff"><path d="M20.107 91.978c-5.635-.474-10.508 1.9-14.757 7.704-1.394 1.904 1.76 27.126 7.1 32.88 1.29 1.39 6.236.061 9.241-.334 4.056-.535-3.093-10.501-2.076-12.097.811-1.272 12.495-.256 14.6-6.467 2.482-7.328-3.593-18.458-7.687-20.081-2.244-.89-4.382-1.434-6.42-1.605zm1.595 11.959a3.232 3.232 0 0 1 2.873 2.333 3.23 3.23 0 0 1-.783 3.13c.992 1.373 4.605 3.654 2.976 4.12l-3.24.929-3.242.928c-1.64.47.23-3.401.346-5.102a3.23 3.23 0 0 1-2.268-2.226 3.23 3.23 0 0 1 2.216-3.995 3.224 3.224 0 0 1 1.122-.117zM34.037 93.187c-1.976 5.887 4.386 21.864 5.207 30.656.222 2.376 11.236.847 11.77.206 4.565-5.492 4.158-12.422 5.122-13.55.964-1.13 2.562 13.753 8.311 14.785 3.804.682 7.95 1.917 8.276-.617 1.582-12.285 6.354-31.44 2.882-33.387-2.526-1.416-6.63-.262-9.957.395-2.9.573 1.315 19.047-2.201 15.287-5.595-5.983-5.381-7.015-7.647-6.864-1.546.103-2.14 5.225-5.275 7.207-3.515 2.22-3.298-13.282-4.27-14.575-2.017-2.675-11.307-2.256-12.218.457zM113.449 105.872c-2.432 3.66.312 15.078-.312 21.023-.17 1.607 8.831 1.982 9.35 1.623 3.075-12.322 1.19-17.1.766-21.406-.252-1.816-8.683-2.928-9.804-1.24zM112.924 98.892c1.579-5.363 3.804-8.166 9.922-6.297 2.963.906 4.142 4.694.855 8.72-3.426 4.194-12.355 2.94-10.777-2.422zM109.486 125.915c2.374-5.832 1.82-21.273 1.792-30.244-.007-2.424-10.688-1.739-11.13-1.024-3.26 5.273-1.413 12.761-2.422 13.84-1.01 1.077-3.808-14.966-9.165-16.41-3.545-.956-7.366-2.495-7.891.052-2.547 12.344-8.7 31.434-5.578 33.648 2.272 1.611 6.257.726 9.465.291 2.796-.38.378-19.402 3.388-15.346 2.704 4.906 5.214 10.705 9.93 14.809 1.682 2.852 10.517 3.072 11.61.384zM129.023 96.219c-.98 9.248-6.797 31.176-5.318 32.483 2.648 2.34 20.034 4.958 27.08 6.106 2.246-.677 2.365-9.09.203-9.77-3.763-1.053-7.7-2.917-15.576-3.845.254-.973.51-2.008.761-3.124 4.067.741 7.431 1.393 14.615 2.517 1.506.236 3.312-7.121 1.527-8.374-1.188-.834-7.844-3.197-14.486-4.234.087-.797.168-1.624.243-2.486 7.946-.529 12.773 1.428 16.781 1.69 2.233.08 4-7.235 1.99-8.515-4.19-1.7-26.75-6.974-27.82-2.448z"/><path d="M57.06 137.556c-3.332 3.15-18.7-9.422-21.622 6.626-2.058 19.546 20.513 7.104 21.752 12.342 1.483 6.274-5.974 6.96-14.87 7.802-9.544.904-19.109-8.502-16.99-23.83 1.955-14.151 22.66-20.357 31.241-10.485 1.104 1.27 2.308 5.826.489 7.545zM127.497 161.78c1.908-6.001.142-21.351-.591-30.292-.198-2.416-10.792-.893-11.176-.146-2.837 5.513-.405 12.833-1.327 13.987-.921 1.154-4.973-14.619-10.426-15.638-3.61-.674-7.54-1.908-7.863.672-1.568 12.507-6.202 32.021-2.915 33.984 2.392 1.427 6.295.23 9.459-.455 2.757-.598-1.149-19.372 2.17-15.566 3.083 4.679 6.04 10.262 11.065 13.983 1.9 2.712 10.725 2.236 11.604-.53z"/><path d="M84.066 127.193c-8.637-2.582-21.664 1.62-25.117 10.934-5.377 14.508 1.93 25.757 11.445 26.935 18.38 2.26 25.608-12.453 21.323-30.428-.924-3.877-3.866-6.31-7.65-7.441zm-7.906 11.36a7.694 8.04 16.935 0 1 5.019 9.932 7.694 8.04 16.935 0 1-9.702 5.45 7.694 8.04 16.935 0 1-5.019-9.932 7.694 8.04 16.935 0 1 9.702-5.45z"/><path d="M74.84 144.074a2.373 2.373 0 0 0-2.96 1.58 2.373 2.373 0 0 0 1.578 2.961 2.373 2.373 0 0 0 2.962-1.579 2.373 2.373 0 0 0-1.58-2.962zm-.242.617a1.38 1.38 0 0 1 .918 1.722 1.38 1.38 0 0 1-1.723.919 1.38 1.38 0 0 1-.918-1.723 1.38 1.38 0 0 1 1.723-.918z" paint-order="stroke fill markers"/><path d="M72.074 139.677c-.235-1.005-3.38.717-2.667 1.437l2.58 2.604c.241.243.995-.142.913-.491z"/></g><path fill="#0193cf" d="M58.185 68.996c-1.466-.06-3.246.696-3.444 2.327-.042.928-.77-.16-1.186-.338-2.721-1.832-6.214-1.718-9.327-1.266-1.634.277-3.368.633-4.7 1.654-.857.277-1.31-.776-2.037-1.022-3.399-1.994-8.192-1.216-10.65 1.914-1.297 1.451-1.98 3.296-2.693 5.075-.373-1.743-.756-3.605-2.084-4.902-1.427-1.643-3.674-2.051-5.73-2.254-2.822-.208-5.694.282-8.32 1.31-1.822.933-2.91 3.305-1.955 5.217.752 1.759 2.876 2.847 4.721 2.2 1.666-.39 3.154-1.556 4.939-1.403.55.487.512 1.385-.131 1.775-2.469 2.059-5.99 2.49-8.127 4.989-.774 1.33-.82 2.913-.904 4.392.12 1.36 1.358 2.55 2.757 2.4 4.717.37 9.447.889 14.122.001.688-.154 1.312-.497 1.867-.924 2.518 2.503 6.6 2.752 9.716 1.298 1.521-.634 2.704-1.806 3.881-2.92.427.994 1.327 1.757 2.426 1.848 4.854.304 9.732.926 14.566-.023 1.56-.323 2.779-1.826 2.613-3.44.004-1.006-.239-1.988-.417-2.972.695.278 1.407-.035 2.107.08.764.23.427 1.11.25 1.64-.396 1.51-.58 3.52.881 4.534 1.528 1.001 3.504.75 5.18.324a2.809 2.809 0 0 0 1.968-2.487c.26-1.558.057-3.146.239-4.712 1.152-.148 2.443-.356 3.24-1.29.182-1.364 1.179-2.85.29-4.164-.569-.85-1.65-1.081-2.6-1.19.062-1.838.425-3.645-.008-5.468-.97-1.456-2.962-1.33-4.487-1.137-1.427.224-2.538 1.504-2.62 2.935a5.275 5.275 0 0 1-.917 2.277c-.193-.506-.49-1.294-.36-1.952.122-1.442-.014-3.286-1.506-3.996a2.975 2.975 0 0 0-1.56-.33zm-10.056 7.95c.668.552.198 1.546-.49 1.828-1.888 1.44-4.202 2.135-6.239 3.324.139-1.256.263-2.44.217-3.717 2.255.081 4.097-1.595 6.334-1.627l.178.192zm-14.791 1.267c1.035.225 1.462 1.514 1.333 2.482-.123 1.07-.656 2.524-1.937 2.522-1.005-.223-1.271-1.481-1.24-2.371.07-1.05.676-2.496 1.844-2.633z"/><path fill="#025" d="M58.423 70.606c-.906-.007-1.762.164-1.977.554-.531 1.797-1.429 11.233.946 11.382l5.649-.288c-.937 3.47-2.001 6.103-.722 6.713 1.225.583 2.14.31 3.76.03 1.51-.261.566-3.68 1.25-7.094 1.708-.187 2.938-.409 3.143-.664.213-1.187.807-1.833.468-2.474-.283-.533-1.568-.459-2.974-.537.055-1.688.29-3.233.295-6.204 0-.622-3.299-.684-3.792.115-.33.532-1.002 3.366-1.005 6.112-.41.015-3.114 1.01-3.65.584-1.058-3.768 1.151-8.208-1.391-8.229zm-25.356.253a6.987 6.987 0 0 0-.335.011c-5.425.33-8.164 6.802-7.6 14.947.141 2.044 1.186 3.448 2.653 4.222 3.347 1.768 8.883.264 10.843-4.359 3.053-7.202.767-13.367-3.02-14.457a9.03 9.03 0 0 0-2.197-.361 7.549 7.549 0 0 0-.344-.003zm14.595.17c-.593-.005-1.187.02-1.778.074-2.422.215-4.585.859-5.23 1.38-1.749 1.407-.922 3.336.146 4.031 2.355 1.533 7.199-3.95 9.067.257 1.868 4.208-8.595 5.652-9.019 8.255-.28 1.723-.822 3.605.407 3.73 5.962.607 14.492.964 15.388-.62.652-1.152.04-2.994-.32-4.49-.315-1.304-7.65 1.375-5.877-.245 3.12-2.507 5.679-5.577 3.389-9.85-1.054-1.868-3.589-2.5-6.173-2.523zm-32.336.705a18.32 18.32 0 0 0-1.778.074c-2.422.216-4.585.86-5.231 1.38-1.748 1.407-.921 3.336.147 4.032 2.355 1.532 7.197-3.95 9.065.257 1.87 4.207-8.592 5.652-9.016 8.255-.28 1.723-.823 3.604.407 3.73 5.96.606 14.49.965 15.387-.62.652-1.152.04-2.994-.32-4.49-.316-1.304-7.65 1.374-5.878-.246 3.121-2.506 5.68-5.576 3.39-9.85-1.054-1.868-3.589-2.5-6.173-2.522zm18.008 4.874a2.43 2.43 0 0 1 1.165.292c1.574.844 2.217 3.25 1.438 5.372-.78 2.123-2.688 3.16-4.262 2.316-1.574-.845-2.218-3.25-1.438-5.372.532-1.446 1.62-2.447 2.816-2.59.094-.011.188-.018.281-.018z"/><path fill="#fff" d="M57.971 69.567c-.906-.007-1.761.164-1.976.554-.531 1.797-1.429 11.233.945 11.382l5.65-.288c-.937 3.47-2.002 6.103-.722 6.712 1.225.583 2.14.311 3.76.031 1.51-.261.565-3.68 1.25-7.094 1.707-.187 2.938-.409 3.143-.664.213-1.187.807-1.834.467-2.474-.282-.534-1.567-.459-2.974-.537.056-1.688.29-3.234.295-6.204.001-.622-3.298-.684-3.792.115-.328.531-1.001 3.366-1.005 6.112-.41.015-3.114 1.01-3.649.584-1.058-3.768 1.151-8.208-1.392-8.229zm-25.355.253a6.987 6.987 0 0 0-.335.01c-5.425.33-8.164 6.803-7.6 14.948.14 2.044 1.186 3.447 2.653 4.222 3.347 1.768 8.883.264 10.843-4.36 3.053-7.201.767-13.366-3.02-14.456a9.03 9.03 0 0 0-2.198-.361 7.549 7.549 0 0 0-.343-.003zm14.595.169c-.594-.004-1.187.02-1.778.074-2.422.216-4.585.86-5.231 1.38-1.748 1.407-.92 3.337.147 4.032 2.355 1.533 7.198-3.95 9.067.257 1.868 4.207-8.595 5.652-9.019 8.255-.28 1.723-.822 3.604.407 3.73 5.961.607 14.492.964 15.388-.62.651-1.152.04-2.994-.32-4.49-.316-1.304-7.65 1.375-5.877-.245 3.12-2.507 5.679-5.577 3.388-9.85-1.053-1.868-3.588-2.5-6.172-2.523zm-32.336.706a18.32 18.32 0 0 0-1.778.074c-2.422.216-4.585.859-5.232 1.38-1.747 1.407-.92 3.336.148 4.031 2.354 1.533 7.197-3.95 9.065.258 1.869 4.207-8.593 5.652-9.016 8.255-.28 1.723-.823 3.604.406 3.729 5.961.606 14.492.966 15.388-.619.651-1.152.04-2.994-.32-4.49-.316-1.304-7.65 1.374-5.878-.246 3.12-2.506 5.68-5.576 3.39-9.85-1.054-1.868-3.59-2.5-6.173-2.522zm18.008 4.874a2.43 2.43 0 0 1 1.165.292c1.574.844 2.217 3.25 1.437 5.372-.78 2.123-2.688 3.16-4.261 2.315-1.574-.844-2.218-3.249-1.438-5.371.532-1.447 1.62-2.447 2.815-2.59.095-.011.188-.018.282-.018z"/></svg>