<svg xmlns="http://www.w3.org/2000/svg" width="17.143" height="20"><path fill="#bdc3c7" d="M1.905 2.857A1.908 1.908 0 0 0 0 4.762v13.333C0 19.143.853 20 1.905 20H15.238a1.907 1.907 0 0 0 1.905-1.905V4.762a1.907 1.907 0 0 0-1.905-1.905H7.62z"/><path fill="#ecf0f1" d="M1.905 1.905A1.905 1.905 0 0 0 0 3.81v13.333c0 1.052.853 1.905 1.905 1.905H15.238a1.904 1.904 0 0 0 1.905-1.905V3.81a1.904 1.904 0 0 0-1.905-1.905H7.62z"/><path fill="#e74c3c" d="M1.905 1.905A1.905 1.905 0 0 0 0 3.81v3.809h17.143V3.81a1.904 1.904 0 0 0-1.905-1.905H7.62z"/><path fill="#c0392b" d="M4.286 4.286a1.429 1.429 0 1 1-2.857 0 1.429 1.429 0 1 1 2.857 0zM15.714 4.286a1.429 1.429 0 1 1-2.857 0 1.429 1.429 0 1 1 2.857 0z"/><g fill="#bdc3c7"><path d="M1.905 9.524v1.905H3.81V9.524zm2.857 0v1.905h1.905V9.524zm2.857 0v1.905h1.905V9.524zm2.857 0v1.905h1.905V9.524zm2.857 0v1.905h1.905V9.524zM1.905 12.381v1.905H3.81V12.38zm2.857 0v1.905h1.905V12.38zm2.857 0v1.905h1.905V12.38zm2.857 0v1.905h1.905V12.38zm2.857 0v1.905h1.905V12.38zM1.905 15.238v1.905H3.81v-1.905zm2.857 0v1.905h1.905v-1.905zm2.857 0v1.905h1.905v-1.905zm2.857 0v1.905h1.905v-1.905zm2.857 0v1.905h1.905v-1.905z"/></g><path fill="#95a5a6" d="M2.857 0a.952.952 0 0 0-.952.952V3.81a.952.952 0 1 0 1.905 0V.952A.952.952 0 0 0 2.857 0Zm11.429 0a.953.953 0 0 0-.953.952V3.81a.953.953 0 0 0 1.905 0V.952A.953.953 0 0 0 14.286 0Z"/><path fill="#bdc3c7" d="M2.857 0c-.526 0-.952.381-.952.952v1.905H3.81V.952C3.81.381 3.383 0 2.857 0zm11.429 0c-.526 0-.953.381-.953.952v1.905h1.905V.952c0-.571-.427-.952-.952-.952z"/></svg>