<svg xmlns="http://www.w3.org/2000/svg" width="20" height="20"><path fill="#4285f4" d="M.008 15.393h4.744V4.752h10.64V.008H2.38Q.008.008.008 2.252"/><path fill="#1967d2" d="M15.264.008V4.88h4.744V2.252q0-2.244-2.244-2.244"/><path fill="#fbbc04" d="M15.264 4.752h4.744v10.512h-4.744"/><path fill="#188038" d="M.008 15.264v2.5q0 2.244 2.244 2.244H4.88v-4.744"/><path fill="#34a853" d="M4.752 15.264h10.512v4.744H4.752"/><path fill="#ea4335" d="M15.264 20.008v-4.744h4.744"/><path fill="none" stroke="#4285f4" stroke-linejoin="bevel" stroke-width=".962" d="M6.675 8.277a1.603 1.41 1 1 1 1.602 1.73H7.7h.577a1.603 1.41 1 1 1-1.602 1.732m4.23-3.334 1.731-1.218h.257V6.74v6.602"/></svg>