<?xml version="1.0" standalone="no"?>
<!DOCTYPE svg PUBLIC "-//W3C//DTD SVG 20010904//EN"
 "http://www.w3.org/TR/2001/REC-SVG-20010904/DTD/svg10.dtd">
<svg version="1.0" xmlns="http://www.w3.org/2000/svg"
 width="645.000000pt" height="645.000000pt" viewBox="0 0 645.000000 645.000000"
 preserveAspectRatio="xMidYMid meet">
<metadata>
Created by potrace 1.14, written by Peter Selinger 2001-2017
</metadata>
<g transform="translate(0.000000,645.000000) scale(0.100000,-0.100000)"
fill="#000000" stroke="none">
<path d="M4285 6376 c-77 -16 -134 -33 -210 -64 -38 -15 -56 -17 -69 -10 -10
6 -32 12 -50 13 -17 2 -58 10 -91 18 -359 92 -755 -22 -930 -268 -44 -61 -101
-182 -91 -192 2 -2 41 8 85 23 45 15 84 25 87 21 3 -3 -8 -23 -24 -44 -17 -21
-37 -60 -45 -88 -21 -66 -76 -239 -84 -262 -3 -10 36 25 87 77 89 91 119 105
86 42 -19 -37 -56 -177 -56 -213 0 -24 -4 -28 -42 -34 -480 -73 -827 -205
-1198 -456 -178 -120 -271 -199 -445 -373 -171 -172 -291 -319 -417 -511 l-79
-120 -117 -2 c-188 -3 -356 -59 -418 -140 -87 -115 -84 -273 7 -377 l40 -45
-25 -38 c-36 -55 -59 -154 -54 -233 5 -70 25 -119 66 -162 l25 -27 -48 -53
c-79 -88 -94 -116 -107 -207 -29 -208 53 -724 165 -1032 89 -246 163 -333 322
-380 59 -18 87 -21 178 -16 107 5 109 4 102 -17 -4 -11 -9 -93 -12 -181 -4
-125 -2 -179 11 -249 68 -360 294 -607 651 -712 84 -24 99 -25 235 -20 248 9
474 57 572 122 21 13 40 24 44 24 3 0 28 -16 54 -35 62 -46 154 -88 265 -121
82 -25 104 -27 255 -27 195 0 270 16 418 88 l92 46 46 -35 c47 -36 166 -80
246 -91 94 -12 342 37 386 78 31 28 70 109 78 164 l6 42 86 -74 c155 -134 284
-181 472 -172 216 10 319 81 357 247 24 103 24 552 0 799 -10 96 -15 176 -13
178 2 2 73 -9 157 -26 85 -17 252 -46 371 -66 209 -34 219 -35 258 -19 99 40
161 165 161 326 0 97 -11 149 -47 221 l-25 48 21 30 c66 92 89 293 46 399 -4
11 9 23 43 42 54 29 98 88 133 177 17 43 22 78 22 151 1 84 -2 101 -26 150
-30 60 -62 90 -120 109 -20 7 -41 18 -47 25 -6 6 -26 73 -45 147 -169 656
-532 1272 -990 1682 -96 86 -94 83 -110 194 -1 13 -10 31 -18 40 -8 10 -20 32
-26 48 -5 17 -14 39 -18 50 -4 11 25 -9 65 -45 188 -167 290 -239 385 -272 85
-29 170 -19 223 26 l28 24 -50 7 c-143 21 -342 133 -605 340 -85 67 -107 90
-132 139 -29 57 -60 102 -211 304 l-69 92 -55 0 c-60 0 -64 14 -6 24 21 3 55
11 75 16 l38 11 -20 52 -20 51 39 46 c21 25 76 74 122 108 46 35 85 68 87 73
2 4 -8 11 -22 15 -17 4 -26 13 -26 25 0 27 -39 24 -86 -6 -21 -14 -67 -56
-101 -93 -34 -37 -63 -61 -63 -54 0 20 108 130 159 163 25 16 53 29 63 29 37
0 8 60 -55 116 -103 91 -292 112 -477 55 -33 -11 -62 -15 -65 -10 -3 4 27 18
67 31 60 19 96 23 203 23 122 0 134 -2 192 -29 35 -16 68 -35 74 -42 6 -8 18
-14 26 -14 11 0 11 6 -4 31 -27 47 -99 106 -151 124 -66 22 -184 27 -267 11z
m-320 -315 c227 -47 410 -156 561 -334 11 -13 27 -26 35 -29 25 -9 3 -19 -86
-39 -149 -32 -306 -48 -532 -54 -354 -9 -453 -25 -587 -92 -120 -60 -263 -219
-361 -400 -15 -29 -32 -53 -36 -53 -9 0 20 79 48 133 9 18 16 45 14 61 -2 40
17 177 36 256 33 136 76 190 200 250 l78 39 -96 0 c-102 1 -157 -12 -210 -50
-17 -12 -33 -19 -36 -15 -12 11 49 115 82 141 20 14 69 42 111 61 41 19 73 38
70 43 -7 10 158 64 244 80 30 6 64 13 75 15 64 12 306 4 390 -13z m-350 -544
c-14 -23 -34 -73 -45 -109 -17 -56 -31 -77 -86 -134 -36 -37 -77 -84 -91 -105
-14 -22 -30 -39 -34 -39 -5 0 -9 1 -9 3 1 15 79 368 84 375 6 9 99 33 176 45
14 3 26 5 27 6 1 0 -9 -18 -22 -42z m717 33 l48 0 0 -37 c0 -47 -26 -100 -61
-126 -22 -16 -30 -17 -48 -7 -67 35 -101 -5 -205 -240 -120 -270 -135 -300
-155 -300 -49 0 -46 19 39 267 45 131 98 287 118 347 l37 108 89 -6 c49 -3
111 -6 138 -6z m224 -421 c42 -18 82 -41 90 -54 12 -18 15 -54 15 -158 -1
-120 1 -137 19 -160 17 -21 20 -41 20 -130 0 -270 -48 -630 -115 -862 -32
-110 -47 -145 -52 -122 -5 17 -15 22 -26 11 -10 -10 19 -79 34 -79 9 0 26 43
49 122 19 68 38 123 43 123 4 0 7 -49 7 -110 0 -110 0 -110 24 -110 47 0 49 6
109 274 7 33 18 61 24 63 17 6 230 -204 316 -312 143 -179 233 -322 298 -470
33 -76 58 -139 56 -141 -2 -2 -51 1 -109 8 l-106 11 -12 41 c-23 80 -74 159
-150 233 -67 67 -71 73 -40 60 112 -45 159 -76 243 -159 82 -81 88 -85 82 -55
-10 46 -64 150 -104 200 -108 134 -261 204 -466 214 -133 6 -226 -11 -331 -61
l-72 -34 20 -66 c20 -66 20 -66 1 -105 l-20 -39 51 20 c106 43 331 34 443 -17
28 -13 54 -21 56 -18 8 8 208 -131 250 -173 l39 -39 -94 -6 c-51 -3 -105 -10
-120 -14 -30 -8 -95 13 -163 51 -63 36 -168 57 -255 51 -85 -6 -150 -30 -203
-77 l-36 -32 -78 19 c-54 12 -118 18 -208 18 -150 -1 -225 -18 -278 -65 l-34
-29 -34 35 c-73 76 -322 171 -471 181 -80 5 -91 4 -140 -20 l-53 -26 -59 29
c-44 23 -73 30 -114 30 l-55 0 40 29 c77 56 113 134 113 247 0 78 -9 103 -58
156 -36 39 -40 49 -45 111 -7 94 -43 151 -119 190 -67 35 -159 44 -233 25 -47
-12 -52 -12 -103 15 -74 37 -173 38 -250 2 l-52 -24 -72 17 -71 18 69 51 c373
276 851 433 1319 433 153 0 280 -13 442 -46 67 -13 125 -24 128 -24 3 0 5 17
5 39 l0 38 -122 6 c-278 12 -527 140 -614 315 -27 53 -29 66 -29 172 0 95 3
121 18 143 26 40 43 43 90 16 58 -33 149 -32 235 3 43 18 65 23 67 15 50 -146
103 -229 184 -293 88 -69 146 -88 276 -88 104 -1 113 1 164 29 29 16 68 47 86
68 44 51 97 155 126 245 13 39 27 72 32 72 4 0 42 -14 83 -31z m-2218 -1315
c21 -14 22 -21 19 -154 -1 -76 1 -141 5 -145 4 -5 34 -2 67 5 l60 13 6 46 c13
100 28 171 40 187 8 11 31 19 68 22 71 6 89 -6 82 -57 -2 -20 -7 -72 -10 -116
l-5 -80 50 -1 c67 -1 76 -11 60 -69 -14 -49 -23 -56 -95 -71 l-40 -9 -6 -118
c-4 -64 -12 -124 -18 -131 -18 -21 -123 -31 -158 -14 -44 21 -41 76 13 239 5
14 -9 16 -113 15 l-118 -1 -18 35 c-16 31 -18 55 -14 195 4 172 13 211 49 218
43 8 54 7 76 -9z m-858 -27 c25 -12 59 -41 77 -65 32 -42 33 -43 42 -20 26 68
121 102 291 103 106 0 119 -2 172 -28 72 -35 99 -76 105 -161 7 -87 -24 -156
-109 -237 -69 -66 -68 -68 55 -43 109 22 123 15 132 -68 10 -96 6 -110 -40
-133 -36 -18 -58 -20 -235 -18 -107 1 -226 6 -265 10 l-70 8 1 73 c0 64 3 75
28 101 15 15 66 47 114 71 48 23 109 55 135 72 77 49 98 113 53 165 -32 36
-86 36 -176 -1 -84 -35 -133 -36 -167 -5 l-25 24 7 -25 c5 -14 8 -68 8 -120
-1 -171 -61 -306 -167 -377 -58 -40 -103 -53 -179 -53 -66 0 -120 19 -160 58
-55 52 -62 76 -61 212 1 197 49 339 143 421 80 71 192 85 291 36z m-672 -22
c67 -20 115 -68 131 -128 26 -107 3 -175 -91 -271 -37 -39 -65 -72 -62 -75 2
-3 25 1 50 7 81 22 158 26 172 10 17 -21 27 -150 13 -175 -20 -38 -92 -46
-335 -40 -122 4 -234 10 -250 13 l-28 7 4 73 c4 54 10 80 24 95 10 11 75 49
144 84 149 76 185 108 185 166 0 33 -6 46 -28 65 -37 31 -69 30 -167 -6 -98
-36 -130 -37 -167 -6 -21 19 -28 33 -28 64 0 22 7 48 15 57 19 23 87 53 143
64 72 15 219 12 275 -4z m2153 -761 c45 -23 59 -67 59 -188 0 -129 -16 -251
-84 -661 -30 -176 -57 -346 -61 -379 -10 -78 -29 -96 -99 -96 -69 0 -210 26
-260 48 -51 22 -115 108 -152 204 -15 40 -38 100 -50 133 -13 33 -28 83 -35
110 -17 73 -29 99 -39 89 -5 -5 -19 -57 -30 -115 -24 -128 -47 -196 -95 -288
-51 -97 -67 -110 -166 -127 -45 -8 -84 -16 -86 -18 -2 -2 29 -6 68 -10 55 -5
93 -16 164 -51 156 -75 223 -175 213 -316 -6 -78 -33 -109 -96 -109 -24 0
-118 18 -209 41 -141 35 -176 40 -246 37 -52 -2 -96 -10 -118 -21 -115 -57
-183 -202 -181 -387 2 -158 44 -241 150 -291 101 -47 161 -54 342 -39 286 24
323 17 335 -64 4 -25 2 -59 -4 -78 -12 -36 -59 -87 -100 -108 -79 -41 -335
-83 -506 -83 -82 0 -113 4 -171 25 -203 72 -358 260 -414 502 -20 84 -22 115
-18 253 4 124 10 170 25 213 90 249 288 410 583 474 53 11 59 14 29 15 -55 2
-99 20 -104 44 -2 12 -16 85 -30 162 -15 77 -35 166 -46 199 -18 51 -95 367
-119 481 -5 22 -12 87 -15 145 -8 118 2 175 37 207 82 76 394 66 437 -14 5
-11 17 -84 26 -164 27 -246 50 -354 80 -379 42 -35 111 26 173 154 71 145 103
148 220 18 42 -48 98 -109 125 -137 46 -49 48 -49 63 -30 12 17 14 60 12 282
-3 239 -1 264 15 280 41 42 316 69 378 37z m374 1 c152 -40 167 -47 212 -93
56 -57 116 -181 190 -391 32 -91 63 -166 69 -168 8 -3 13 46 18 153 10 223 46
353 104 376 41 16 289 14 337 -3 68 -24 67 -18 61 -449 -5 -377 -13 -507 -41
-643 -29 -142 -57 -162 -225 -162 -71 0 -130 5 -153 13 -76 27 -224 192 -315
350 -21 37 -67 118 -102 180 -34 61 -68 112 -75 112 -22 0 -27 -30 -36 -235
-11 -235 -24 -327 -47 -348 -9 -8 -42 -19 -72 -24 l-55 -9 60 -13 c125 -27
239 -111 290 -211 48 -96 81 -322 72 -504 -16 -324 -144 -551 -372 -661 -126
-60 -175 -70 -350 -70 -130 0 -159 3 -217 23 -94 33 -172 86 -251 172 -74 82
-115 169 -144 305 -32 152 5 442 74 579 36 71 127 170 208 226 101 70 270 138
365 149 l65 7 -30 14 c-54 27 -61 53 -47 187 15 146 76 450 149 733 30 118 64
253 74 300 28 123 55 138 184 105z m-2283 -69 c102 -34 133 -55 196 -135 107
-135 182 -337 184 -491 2 -238 -89 -317 -426 -370 -71 -11 -133 -23 -137 -26
-18 -10 -8 -51 37 -159 52 -124 84 -218 84 -245 0 -10 -8 -27 -17 -39 -15 -18
-43 -25 -168 -43 -149 -22 -150 -22 -190 -2 -35 16 -47 32 -91 119 -100 199
-192 618 -211 961 -9 163 -7 170 95 273 94 95 151 133 252 169 58 20 79 22
190 19 101 -4 140 -9 202 -31z m3724 3 c69 -35 89 -67 89 -142 -1 -70 -24
-124 -81 -186 -105 -117 -339 -114 -398 4 -19 37 -19 42 -3 100 16 63 62 151
100 194 60 66 194 80 293 30z m750 -94 c164 -28 437 -93 497 -118 23 -10 41
-26 48 -44 23 -60 -10 -212 -58 -265 -22 -24 -53 -23 -258 12 -128 22 -208 30
-295 30 -118 0 -120 0 -126 -24 -12 -49 -2 -71 36 -74 54 -5 326 -80 413 -114
115 -44 121 -52 115 -157 -5 -89 -29 -163 -61 -190 -14 -11 -53 -7 -264 30
-137 23 -262 44 -279 46 -29 5 -31 3 -42 -48 -7 -28 -10 -54 -7 -57 2 -3 19
-6 37 -7 86 -7 513 -122 559 -151 4 -2 15 -24 24 -49 14 -34 16 -66 13 -142
-4 -100 -21 -154 -52 -166 -17 -7 -455 66 -656 108 -251 53 -359 90 -378 129
-15 29 -10 78 34 331 26 145 36 199 90 445 14 63 38 191 54 283 31 186 38 200
104 216 66 16 287 5 452 -24z m-882 -380 c37 -8 82 -23 100 -33 30 -17 31 -22
49 -138 25 -167 18 -412 -17 -577 -13 -66 -28 -122 -31 -125 -10 -10 -170 -4
-240 9 -104 19 -108 23 -110 120 -1 46 -8 138 -14 204 -7 66 -12 194 -13 285
0 190 13 246 61 256 14 3 31 7 36 9 25 8 116 3 179 -10z m-665 -905 c51 -11
109 -30 128 -41 70 -43 152 -178 255 -419 47 -111 64 -140 77 -140 3 0 5 75 3
167 -4 170 5 251 35 325 18 46 41 54 198 70 134 13 220 0 235 -35 13 -32 50
-521 57 -742 6 -207 -7 -357 -35 -415 -21 -44 -70 -68 -162 -82 -78 -12 -165
-1 -226 28 -66 31 -223 199 -324 347 -52 76 -106 158 -120 183 -27 47 -49 62
-62 42 -5 -7 -7 -134 -6 -283 2 -196 0 -276 -9 -291 -14 -25 -125 -53 -243
-61 -97 -7 -144 11 -166 63 -19 45 -22 251 -6 339 11 58 51 326 73 490 6 44
15 94 20 110 5 17 18 91 29 165 11 74 22 144 25 156 10 47 80 54 224 24z"/>
<path d="M1308 3573 c-82 -51 -98 -198 -27 -257 89 -75 202 29 183 168 -13 88
-87 131 -156 89z"/>
<path d="M2827 1206 c-176 -63 -258 -267 -174 -431 33 -65 68 -97 141 -129 85
-38 155 -36 237 7 220 113 226 423 10 534 -70 37 -145 43 -214 19z m31 -98
c14 -64 12 -98 -5 -98 -16 0 -113 98 -113 114 0 20 58 57 85 54 15 -2 22 -17
33 -70z m126 -129 c54 -64 19 -149 -63 -149 -32 0 -44 6 -65 31 -14 17 -26 39
-26 49 0 35 24 73 55 86 47 21 71 17 99 -17z"/>
<path d="M2885 960 c-24 -26 -13 -68 21 -76 50 -13 89 62 45 86 -29 15 -46 12
-66 -10z"/>
<path d="M885 2511 c-91 -40 -98 -180 -11 -216 l34 -14 -18 -53 c-10 -30 -21
-72 -25 -96 -7 -46 0 -51 50 -32 14 5 40 12 58 15 58 10 166 45 173 56 4 6
-23 39 -61 74 l-67 63 16 30 c26 51 21 97 -17 138 -34 37 -92 53 -132 35z"/>
<path d="M4991 5684 c0 -11 3 -14 6 -6 3 7 2 16 -1 19 -3 4 -6 -2 -5 -13z"/>
<path d="M4881 5305 c-12 -31 -21 -58 -21 -60 0 -10 273 -222 360 -279 194
-129 352 -190 431 -167 47 14 74 50 65 87 -18 68 -181 188 -423 308 -120 60
-368 166 -387 166 -2 0 -14 -25 -25 -55z"/>
</g>
</svg>
